<?xml version="1.0" encoding="UTF-8" standalone="no"?>
<svg width="80" height="80" viewBox="0 0 80 80" fill="none" version="1.1" id="svg8" xml:space="preserve" xmlns="http://www.w3.org/2000/svg" xmlns:svg="http://www.w3.org/2000/svg">
	<defs id="defs12" />
	<path id="rect4" style="stroke:#000002;stroke-width:3;stroke-linecap:round;stroke-dasharray:none;stroke-opacity:1" d="m 17.499999,24 h 9 c 2.493,0 4.5,1.784 4.5,4 v 33 c 0,2.216001 -2.007,4 -4.5,4 h -9 C 15.007,65 13,63.216001 13,61 V 28 c 0,-2.216 2.007,-4 4.499999,-4 z" />
	<path id="rect6" style="stroke:#000000;stroke-width:3;stroke-linecap:round;stroke-dasharray:none;stroke-opacity:1" d="m 40.55,24 h 24.4 C 66.6397,24 68,25.2711 68,26.85 V 62.150001 C 68,63.728901 66.6397,65 64.95,65 H 40.55 C 38.8603,65 37.5,63.728901 37.5,62.150001 V 26.85 C 37.5,25.2711 38.8603,24 40.55,24 Z" />
	<path id="path4968" style="fill:#000000;fill-opacity:1;stroke-width:4;stroke-linecap:round;stroke-linejoin:round;paint-order:fill markers stroke" d="m 59,14.5 a 2,2 0 0 1 -2,2 2,2 0 0 1 -2,-2 2,2 0 0 1 2,-2 2,2 0 0 1 2,2 z" />
	<path id="circle6976" style="fill:#000000;fill-opacity:1;stroke-width:4;stroke-linecap:round;stroke-linejoin:round;paint-order:fill markers stroke" d="m 64,14.5 a 2,2 0 0 1 -2,2 2,2 0 0 1 -2,-2 2,2 0 0 1 2,-2 2,2 0 0 1 2,2 z" />
	<path id="circle6978" style="fill:#000000;fill-opacity:1;stroke-width:4;stroke-linecap:round;stroke-linejoin:round;paint-order:fill markers stroke" d="m 69,14.5 a 2,2 0 0 1 -2,2 2,2 0 0 1 -2,-2 2,2 0 0 1 2,-2 2,2 0 0 1 2,2 z" />
	<path id="path14541" style="color:#000000;fill:none;fill-opacity:1;stroke:#000000;stroke-width:2;stroke-linecap:round;stroke-linejoin:round;stroke-dasharray:none;stroke-opacity:1;paint-order:fill markers stroke" d="M 10.434783,10 C 7.9864428,10 6,11.982612 6,14.42623 V 65.573771 C 6,68.017389 7.9864428,70 10.434783,70 H 69.565218 C 72.013558,70 74,68.017389 74,65.573771 V 14.42623 C 74,11.982612 72.013558,10 69.565218,10 Z m 0,0.983607 h 59.130435 c 1.919415,0 3.449275,1.526909 3.449275,3.442623 v 3.475409 H 6.9855073 V 14.42623 c 0,-1.915714 1.52986,-3.442623 3.4492757,-3.442623 z M 6.9855073,18.885246 H 73.014493 v 46.688525 c 0,1.915713 -1.52986,3.442623 -3.449275,3.442623 H 10.434783 c -1.9194157,0 -3.4492757,-1.52691 -3.4492757,-3.442623 z" />
</svg>
