<?xml version="1.0" encoding="UTF-8" standalone="no"?>
<svg
   width="80"
   height="80"
   viewBox="0 0 80 80"
   fill="none"
   version="1.1"
   id="svg16"
   xmlns="http://www.w3.org/2000/svg"
   xmlns:svg="http://www.w3.org/2000/svg">
  <defs
     id="defs20" />
  <path
     d="M 7.21159,48.641 C 6.06806,44.3733 8.60072,39.9866 12.8684,38.843 l 34.7734,-9.3174 c 4.2677,-1.1436 8.6544,1.3891 9.7979,5.6568 l 1.5529,5.7956 c 0.5718,2.1338 -0.6945,4.3272 -2.8284,4.8989 L 13.6635,57.265 C 11.5296,57.8367 9.33627,56.5704 8.76451,54.4366 Z"
     stroke="#C2CCDE"
     stroke-linecap="round"
     stroke-linejoin="round"
     id="path2"
     style="stroke:#000000;stroke-width:1;stroke-dasharray:none;stroke-opacity:0.5" />
  <path
     d="m 12.665,57.4025 1.4228,5.3098 c 0.2859,1.0669 1.3826,1.7001 2.4495,1.4142 l 5.7955,-1.5529 c 1.067,-0.2859 1.7001,-1.3826 1.4143,-2.4495 l -1.3902,-5.1881 -8.6933,2.3294 c -0.3336,0.0894 -0.6685,0.1338 -0.9986,0.1371 z"
     stroke="#C2CCDE"
     stroke-linecap="round"
     stroke-linejoin="round"
     id="path4"
     style="stroke:#000000;stroke-width:1;stroke-dasharray:none;stroke-opacity:0.5" />
  <path
     d="m 47.4712,48.2065 1.3901,5.1881 c 0.2859,1.0669 1.3826,1.7001 2.4495,1.4142 l 5.7956,-1.5529 c 1.0669,-0.2859 1.7001,-1.3826 1.4142,-2.4495 l -1.4228,-5.3098 c -0.2874,0.1622 -0.5997,0.2912 -0.9333,0.3805 z"
     stroke="#C2CCDE"
     stroke-linecap="round"
     stroke-linejoin="round"
     id="path6"
     style="stroke:#000000;stroke-width:1;stroke-dasharray:none;stroke-opacity:0.5" />
  <path
     d="M 49.4585,29.0391 11.0518,39.3302 12.1961,28.9661 c 0.3619,-3.2768 2.6968,-5.9961 5.8812,-6.8494 l 16.6902,-4.4721 c 3.1844,-0.8533 6.5661,0.3343 8.5179,2.9912 z"
     stroke="#C2CCDE"
     stroke-linecap="round"
     stroke-linejoin="round"
     id="path8"
     style="stroke:#000000;stroke-width:1;stroke-dasharray:none;stroke-opacity:0.5" />
  <path
     d="m 14.3281,48.1537 c -0.4289,-1.6004 0.5209,-3.2454 2.1213,-3.6743 1.6004,-0.4288 3.2454,0.521 3.6742,2.1214 0.4288,1.6003 -0.5209,3.2454 -2.1213,3.6742 -1.6004,0.4288 -3.2454,-0.5209 -3.6742,-2.1213 z"
     stroke="#C2CCDE"
     stroke-linecap="round"
     stroke-linejoin="round"
     id="path10"
     style="stroke:#000000;stroke-width:1;stroke-dasharray:none;stroke-opacity:0.5" />
  <path
     d="m 51.0333,38.3185 c -0.4288,-1.6004 -2.0738,-2.5501 -3.6742,-2.1213 -1.6004,0.4288 -2.5502,2.0738 -2.1214,3.6742 0.4289,1.6004 2.0739,2.5502 3.6743,2.1214 1.6004,-0.4289 2.5501,-2.0739 2.1213,-3.6743 z"
     stroke="#C2CCDE"
     stroke-linecap="round"
     stroke-linejoin="round"
     id="path12"
     style="stroke:#000000;stroke-width:1;stroke-dasharray:none;stroke-opacity:0.5" />
  <path
     d="m 52.5928,16.7061 6.0559,3.3663 4.9782,-4.819 1.9019,6.6625 6.9277,0.1127 -3.3663,6.0559 4.819,4.9782 -6.6625,1.9019 -0.1127,6.9277"
     stroke="#C2CCDE"
     stroke-linecap="round"
     stroke-linejoin="round"
     id="path14"
     style="stroke:#000000;stroke-width:1;stroke-dasharray:none;stroke-opacity:0.5" />
</svg>
