<?xml version="1.0" encoding="UTF-8" standalone="no"?>
<svg width="80" height="80" viewBox="0 0 80 80" fill="none" version="1.1" id="svg1911" xmlns="http://www.w3.org/2000/svg" xmlns:svg="http://www.w3.org/2000/svg">
	<defs id="defs1915" />
	<path d="M 38.4,20.7417 H 14 c -1.1046,0 -2,0.8954 -2,2 v 44 c 0,1.1046 0.8954,2 2,2 h 44 c 1.1046,0 2,-0.8954 2,-2 V 42.342" id="path1905" style="stroke:#000000;stroke-opacity:0.5;stroke-opacity:0.5;stroke-width:1;stroke-linejoin:round;stroke-linecap:round" />
	<path d="m 68.0145,21.8972 c 0.7798,-0.7798 0.7798,-2.044 0,-2.8238 l -5.6568,-5.6568 c -0.7824,-0.7824 -2.0508,-0.7824 -2.8331,0 l -28.825,28.825 c -2.5005,2.5005 -4.1022,5.7589 -4.5547,9.2661 l -0.4334,3.3587 c -0.0636,0.4926 0.3559,0.9121 0.8485,0.8486 l 3.3587,-0.4334 c 3.5072,-0.4526 6.7657,-2.0543 9.2662,-4.5548 z" id="path1907" style="stroke:#000000;stroke-opacity:0.5;stroke-opacity:0.5;stroke-width:1;stroke-linejoin:round;stroke-linecap:round" />
	<path d="m 52.1455,20.8037 8.4806,8.4806" id="path1909" style="stroke:#000000;stroke-opacity:0.5;stroke-opacity:0.5;stroke-width:1;stroke-linejoin:round;stroke-linecap:round" />
</svg>
