<?xml version="1.0" encoding="UTF-8" standalone="no"?>
<svg width="80" height="80" viewBox="0 0 80 80" fill="none" version="1.1" id="svg2425" xmlns="http://www.w3.org/2000/svg" xmlns:svg="http://www.w3.org/2000/svg">
	<defs id="defs2429" />
	<path d="m 58.6276,28.6314 0.2006,0.2006 C 59.5785,29.5822 60,30.5997 60,31.6607 v 30.3417 c 0,2.2092 -1.7909,4 -4,4 H 24 c -2.2091,0 -4,-1.7908 -4,-4 V 18.0029 c 0,-2.2093 1.7911,-4.0003 4.0004,-4 l 18.3418,0.002 c 1.0605,1e-4 2.0777,0.4214 2.8277,1.1713 l 0.1835,0.1835" id="path2421" style="stroke:#000000;stroke-opacity:0.5;stroke-opacity:0.5;stroke-width:1;stroke-linejoin:round;stroke-linecap:round" />
	<path d="M 58.5858,28.586 45.4142,15.4145 C 44.8923,14.8926 44,15.2622 44,16.0002 v 10 c 0,2.2092 1.7909,4 4,4 h 10 c 0.738,0 1.1077,-0.8923 0.5858,-1.4142 z" id="path2423" style="stroke:#000000;stroke-opacity:0.5;stroke-opacity:0.5;stroke-width:1;stroke-linejoin:round;stroke-linecap:round" />
</svg>
