<?xml version="1.0" encoding="UTF-8" standalone="no"?>
<svg width="80" height="80" viewBox="0 0 80 80" fill="none" version="1.1" id="svg3609" xmlns="http://www.w3.org/2000/svg" xmlns:svg="http://www.w3.org/2000/svg">
	<defs id="defs3613" />
	<path d="M 16.1039,40.3093 C 17.241,37.1254 20.257,35 23.6379,35 h 44.6862 c 2.7661,0 4.6973,2.7404 3.767,5.3453 l -7.1429,20 C 64.3796,61.9373 62.8717,63 61.1812,63 H 10.8381 C 9.45505,63 8.48946,61.6298 8.95463,60.3273 Z" id="path3605" style="stroke:#000000;stroke-width:1;stroke-opacity:0.5;stroke-width:1;stroke-linejoin:round;stroke-linecap:round" />
	<path d="m 64,35 v -6 c 0,-2.2091 -1.7909,-4 -4,-4 H 31.3992 C 31.0329,25 30.689,24.8233 30.4757,24.5254 L 26.2841,18.6713 C 25.533,17.6223 24.322,17 23.0318,17 H 12 c -2.20914,0 -4,1.7909 -4,4 v 38 c 0,0.9655 0.34209,1.8511 0.91167,2.5423" id="path3607" style="stroke:#000000;stroke-width:1;stroke-opacity:0.5;stroke-width:1;stroke-linejoin:round;stroke-linecap:round" />
</svg>
