<?xml version="1.0" encoding="UTF-8" standalone="no"?>
<svg
   width="80"
   height="80"
   viewBox="0 0 80 80"
   fill="none"
   version="1.1"
   id="svg8"
   xmlns="http://www.w3.org/2000/svg"
   xmlns:svg="http://www.w3.org/2000/svg">
  <defs
     id="defs12" />
  <path
     d="M 68,40 C 68,55.464 55.464,68 40,68 24.536,68 12,55.464 12,40 12,24.536 24.536,12 40,12 55.464,12 68,24.536 68,40 Z"
     stroke="#C2CCDE"
     stroke-linecap="round"
     stroke-linejoin="round"
     id="path2"
     style="stroke:#000000;stroke-width:4;stroke-dasharray:none;stroke-opacity:1" />
  <path
     d="m 40,46.3611 v -0.3803 c 0,-2.8296 1.4911,-4.6109 3.9237,-6.0562 L 44.9751,39.3 C 47.4705,37.8175 49,35.1297 49,32.2271 49,27.6834 45.3166,24 40.7729,24 H 40 c -4.9706,0 -9,4.0294 -9,9 v 0.5082"
     stroke="#C2CCDE"
     stroke-linecap="round"
     stroke-linejoin="round"
     id="path4"
     style="stroke:#000000;stroke-width:4;stroke-dasharray:none;stroke-opacity:1" />
  <path
     d="m 40,53.6001 v 1.6"
     stroke="#C2CCDE"
     stroke-linecap="round"
     stroke-linejoin="round"
     id="path6"
     style="stroke:#000000;stroke-width:4;stroke-dasharray:none;stroke-opacity:1" />
</svg>
