<?xml version="1.0" encoding="UTF-8" standalone="no"?>
<svg
   width="80"
   height="80"
   viewBox="0 0 80 80"
   fill="none"
   version="1.1"
   id="svg8"
   xmlns="http://www.w3.org/2000/svg"
   xmlns:svg="http://www.w3.org/2000/svg">
  <defs
     id="defs12" />
  <path
     id="path2"
     style="fill:none;stroke:#000000;stroke-width:1;stroke-dasharray:none;stroke-opacity:0.5"
     d="M 63,29.7425 V 22.2426 C 63,19.526103 61.920898,16.920898 60,15 58.079102,13.079102 55.473897,12 52.7574,12 H 13 c 1.280599,0 2.508701,0.508701 3.4142,1.4142 L 17,14 c 1.280599,1.280599 2,3.017402 2,4.8284 v 38.929 c 0,2.716497 1.079102,5.321702 3,7.2426 1.891798,1.891798 4.447503,2.9672 7.1195,2.9993" />
  <path
     id="path2917"
     style="fill:none;stroke:#000000;stroke-width:1;stroke-dasharray:none;stroke-opacity:0.5"
     d="M 63,53 V 45.95322" />
  <path
     d="M 35.8284,65.1716 36,65 c 1.9209,-1.9209 3,-4.5261 3,-7.2426 V 54 c 0,-0.5523 0.4477,-1 1,-1 h 34 c 0.5523,0 1,0.4477 1,1 v 3.7574 c 0,2.7165 -1.0791,5.3217 -3,7.2426 -1.9209,1.9209 -4.5261,3 -7.2426,3 H 29 c 2.5612,0 5.0174,-1.0174 6.8284,-2.8284 z"
     stroke="#C2CCDE"
     stroke-linecap="round"
     stroke-linejoin="round"
     id="path4"
     style="stroke:#000000;stroke-width:1;stroke-dasharray:none;stroke-opacity:0.5" />
  <path
     d="M 19,18.8284 V 29 c 0,0.5523 -0.4477,1 -1,1 H 6 C 5.44772,30 5,29.5523 5,29 V 18.8284 C 5,17.0174 5.71942,15.2806 7,14 c 1.28058,-1.2806 3.0174,-2 4.8284,-2 h 0.3432 C 12.4499,12 13,12 13,12"
     stroke="#C2CCDE"
     stroke-linecap="round"
     stroke-linejoin="round"
     id="path6"
     style="stroke:#000000;stroke-width:1;stroke-dasharray:none;stroke-opacity:0.5" />
  <path
     d="m 55.39565,19.471881 c 0.3839,-0.67185 1.3526,-0.67185 1.73645,0 l 14.27685,24.9844 c 0.38095,0.6667 -0.10045,1.49615 -0.86825,1.49615 H 41.98705 c -0.767815,0 -1.24918,-0.82945 -0.868235,-1.49615 z"
     stroke="#C2CCDE"
     stroke-linecap="round"
     stroke-linejoin="round"
     id="path1991"
     style="stroke:#000000;stroke-width:1;stroke-dasharray:none;stroke-opacity:0.5" />
  <path
     d="m 56.330045,26.898815 v 9.282134"
     stroke="#C2CCDE"
     stroke-linecap="round"
     stroke-linejoin="round"
     id="path1993"
     style="stroke:#000000;stroke-width:1;stroke-dasharray:none;stroke-opacity:0.5" />
  <path
     d="m 56.2478,40.84873 v 0.582202"
     stroke="#C2CCDE"
     stroke-linecap="round"
     stroke-linejoin="round"
     id="path1995"
     style="stroke:#000000;stroke-width:1;stroke-dasharray:none;stroke-opacity:0.5" />
</svg>
