<?xml version="1.0" encoding="UTF-8" standalone="no"?>
<svg
   width="80"
   height="80"
   viewBox="0 0 80 80"
   fill="none"
   version="1.1"
   id="svg4890"
   xmlns="http://www.w3.org/2000/svg"
   xmlns:svg="http://www.w3.org/2000/svg">
  <defs
     id="defs4894" />
  <path
     d="m 21,17 c 0,-1.1046 0.8954,-2 2,-2 h 4 c 1.1046,0 2,0.8954 2,2 v 12 c 0,1.1046 -0.8954,2 -2,2 h -4 c -1.1046,0 -2,-0.8954 -2,-2 z"
     stroke="#C2CCDE"
     stroke-linecap="round"
     stroke-linejoin="round"
     id="path4878"
     style="stroke:#000000;stroke-width:4;stroke-dasharray:none;stroke-opacity:1;stroke-width:4" />
  <path
     d="m 51,34 c 0,-1.1046 0.8954,-2 2,-2 h 4 c 1.1046,0 2,0.8954 2,2 v 12 c 0,1.1046 -0.8954,2 -2,2 h -4 c -1.1046,0 -2,-0.8954 -2,-2 z"
     stroke="#C2CCDE"
     stroke-linecap="round"
     stroke-linejoin="round"
     id="path4880"
     style="stroke:#000000;stroke-width:4;stroke-dasharray:none;stroke-opacity:1;stroke-width:4" />
  <path
     d="m 33,51 c 0,-1.1046 0.8954,-2 2,-2 h 4 c 1.1046,0 2,0.8954 2,2 v 12 c 0,1.1046 -0.8954,2 -2,2 h -4 c -1.1046,0 -2,-0.8954 -2,-2 z"
     stroke="#C2CCDE"
     stroke-linecap="round"
     stroke-linejoin="round"
     id="path4882"
     style="stroke:#000000;stroke-width:4;stroke-dasharray:none;stroke-opacity:1;stroke-width:4" />
  <path
     d="m 12,23 h 9 m 8,0 h 39"
     stroke="#C2CCDE"
     stroke-linecap="round"
     stroke-linejoin="round"
     id="path4884"
     style="stroke:#000000;stroke-width:4;stroke-dasharray:none;stroke-opacity:1;stroke-width:4" />
  <path
     d="m 12,40 h 39 m 8,0 h 9"
     stroke="#C2CCDE"
     stroke-linecap="round"
     stroke-linejoin="round"
     id="path4886"
     style="stroke:#000000;stroke-width:4;stroke-dasharray:none;stroke-opacity:1;stroke-width:4" />
  <path
     d="m 12,57 h 21 m 8,0 h 27"
     stroke="#C2CCDE"
     stroke-linecap="round"
     stroke-linejoin="round"
     id="path4888"
     style="stroke:#000000;stroke-width:4;stroke-dasharray:none;stroke-opacity:1;stroke-width:4" />
</svg>
