<?xml version="1.0" encoding="UTF-8" standalone="no"?>
<svg
   width="80"
   height="80"
   viewBox="0 0 80 80"
   fill="none"
   version="1.1"
   id="svg5176"
   xmlns="http://www.w3.org/2000/svg"
   xmlns:svg="http://www.w3.org/2000/svg">
  <defs
     id="defs5180" />
  <path
     d="M 32.126,56.2559 H 4.15215 C 4.06812,56.2559 4,56.324 4,56.408 c 0,4.3343 3.51361,7.8479 7.8479,7.8479 H 68.1521 C 72.4864,64.2559 76,60.7423 76,56.408 76,56.324 75.9319,56.2559 75.8479,56.2559 H 47.874 c -0.4441,1.7252 -2.0102,3 -3.874,3 h -8 c -1.8638,0 -3.4299,-1.2748 -3.874,-3 z"
     stroke="#C2CCDE"
     stroke-linecap="round"
     stroke-linejoin="round"
     id="path5168"
     style="stroke:#ffffff;stroke-opacity:0.5;stroke-opacity:0.5;stroke-width:1" />
  <path
     d="m 12,56.2559 v -36 c 0,-2.2092 1.7909,-4 4,-4 h 48 c 2.2091,0 4,1.7908 4,4 v 36"
     stroke="#C2CCDE"
     stroke-linecap="round"
     stroke-linejoin="round"
     id="path5170"
     style="stroke:#ffffff;stroke-opacity:0.5;stroke-opacity:0.5;stroke-width:1" />
  <path
     d="m 27.9995,28.2559 7.8476,7.2662 c 0.4274,0.3958 0.4274,1.0717 0,1.4675 l -7.8476,7.2663"
     stroke="#C2CCDE"
     stroke-linecap="round"
     stroke-linejoin="round"
     id="path5172"
     style="stroke:#ffffff;stroke-opacity:0.5;stroke-opacity:0.5;stroke-width:1" />
  <path
     d="M 40.48,44.2559 H 52"
     stroke="#C2CCDE"
     stroke-linecap="round"
     stroke-linejoin="round"
     id="path5174"
     style="stroke:#ffffff;stroke-opacity:0.5;stroke-opacity:0.5;stroke-width:1" />
</svg>
