<?xml version="1.0" encoding="UTF-8" standalone="no"?>
<svg
   width="80"
   height="80"
   viewBox="0 0 80 80"
   fill="none"
   version="1.1"
   id="svg4141"
   xmlns="http://www.w3.org/2000/svg"
   xmlns:svg="http://www.w3.org/2000/svg">
  <defs
     id="defs4145" />
  <path
     d="M 32.126,56.2559 H 4.15215 C 4.06812,56.2559 4,56.324 4,56.408 c 0,4.3343 3.51361,7.8479 7.8479,7.8479 H 68.1521 C 72.4864,64.2559 76,60.7423 76,56.408 76,56.324 75.9319,56.2559 75.8479,56.2559 H 47.874 c -0.4441,1.7252 -2.0102,3 -3.874,3 h -8 c -1.8638,0 -3.4299,-1.2748 -3.874,-3 z"
     stroke="#C2CCDE"
     stroke-linecap="round"
     stroke-linejoin="round"
     id="path4131"
     style="stroke:#ffffff;stroke-opacity:0.5;stroke-opacity:0.5;stroke-width:1" />
  <path
     d="m 12,56.2559 v -36 c 0,-2.2092 1.7909,-4 4,-4 h 48 c 2.2091,0 4,1.7908 4,4 v 36"
     stroke="#C2CCDE"
     stroke-linecap="round"
     stroke-linejoin="round"
     id="path4133"
     style="stroke:#ffffff;stroke-opacity:0.5;stroke-opacity:0.5;stroke-width:1" />
  <path
     d="m 31.743,28.3379 -7.9366,7.2622 c -0.4333,0.3965 -0.4333,1.0791 0,1.4755 l 7.9366,7.2623"
     stroke="#C2CCDE"
     stroke-linecap="round"
     stroke-linejoin="round"
     id="path4135"
     style="stroke:#ffffff;stroke-opacity:0.5;stroke-opacity:0.5;stroke-width:1" />
  <path
     d="m 35.1426,48.3379 9.7143,-24"
     stroke="#C2CCDE"
     stroke-linecap="round"
     stroke-linejoin="round"
     id="path4137"
     style="stroke:#ffffff;stroke-opacity:0.5;stroke-opacity:0.5;stroke-width:1" />
  <path
     d="m 48.2573,28.3379 7.9366,7.2622 c 0.4333,0.3965 0.4333,1.0791 0,1.4755 l -7.9366,7.2623"
     stroke="#C2CCDE"
     stroke-linecap="round"
     stroke-linejoin="round"
     id="path4139"
     style="stroke:#ffffff;stroke-opacity:0.5;stroke-opacity:0.5;stroke-width:1" />
</svg>
