<?xml version="1.0" encoding="UTF-8" standalone="no"?>
<svg
   width="80"
   height="80"
   viewBox="0 0 80 80"
   fill="none"
   version="1.1"
   id="svg876"
   xmlns="http://www.w3.org/2000/svg"
   xmlns:svg="http://www.w3.org/2000/svg">
  <defs
     id="defs880" />
  <path
     d="m 30,17 h -7 c -2.7614,0 -5,2.2386 -5,5 v 39 c 0,2.7614 2.2386,5 5,5 h 34 c 2.7614,0 5,-2.2386 5,-5 V 22 c 0,-2.7614 -2.2386,-5 -5,-5 h -7"
     stroke="#C2CCDE"
     stroke-linecap="round"
     stroke-linejoin="round"
     id="path868"
     style="stroke:#ffffff;stroke-opacity:0.5;stroke-opacity:0.5;stroke-width:1" />
  <path
     d="m 30,17 c 0,-2.2091 1.7909,-4 4,-4 h 12 c 2.2091,0 4,1.7909 4,4 0,2.2091 -1.7909,4 -4,4 H 34 c -2.2091,0 -4,-1.7909 -4,-4 z"
     stroke="#C2CCDE"
     stroke-linecap="round"
     stroke-linejoin="round"
     id="path870"
     style="stroke:#ffffff;stroke-opacity:0.5;stroke-opacity:0.5;stroke-width:1" />
  <path
     d="M 46,43.166 H 70.0007"
     stroke="#C2CCDE"
     stroke-linecap="round"
     stroke-linejoin="round"
     id="path872"
     style="stroke:#ffffff;stroke-opacity:0.5;stroke-opacity:0.5;stroke-width:1" />
  <path
     d="m 45.9999,32.8209 v 20.6863 c 0,2.0875 -2.5239,3.1329 -4,1.6568 l -9.1716,-9.1716 c -1.5621,-1.5621 -1.5621,-4.0947 0,-5.6568 l 9.1716,-9.1716 c 1.4761,-1.4761 4,-0.4307 4,1.6569 z"
     stroke="#C2CCDE"
     stroke-linecap="round"
     stroke-linejoin="round"
     id="path874"
     style="stroke:#ffffff;stroke-opacity:0.5;stroke-opacity:0.5;stroke-width:1" />
</svg>
