<?xml version="1.0" encoding="UTF-8" standalone="no"?>
<svg
   width="80"
   height="80"
   viewBox="0 0 80 80"
   fill="none"
   version="1.1"
   id="svg2804"
   xmlns="http://www.w3.org/2000/svg"
   xmlns:svg="http://www.w3.org/2000/svg">
  <defs
     id="defs2808" />
  <path
     d="m 36,48 c 0,-2.2091 -5.3726,-4 -12,-4 -6.6274,0 -12,1.7909 -12,4 v 4 c 0,6.6274 5.3726,12 12,12 6.6274,0 12,-5.3726 12,-12 z"
     stroke="#C2CCDE"
     stroke-linecap="round"
     stroke-linejoin="round"
     id="path2794"
     style="stroke:#ffffff;stroke-width:4;stroke-dasharray:none;stroke-opacity:1;stroke-width:4" />
  <path
     d="M 12,47 18.8385,20.5007 C 19.5223,17.8513 21.9119,16 24.6482,16 H 28"
     stroke="#C2CCDE"
     stroke-linecap="round"
     stroke-linejoin="round"
     id="path2796"
     style="stroke:#ffffff;stroke-width:4;stroke-dasharray:none;stroke-opacity:1;stroke-width:4" />
  <path
     d="m 36,47 h 8"
     stroke="#C2CCDE"
     stroke-linecap="round"
     stroke-linejoin="round"
     id="path2798"
     style="stroke:#ffffff;stroke-width:4;stroke-dasharray:none;stroke-opacity:1;stroke-width:4" />
  <path
     d="m 44,48 c 0,-2.2091 5.3726,-4 12,-4 6.6274,0 12,1.7909 12,4 v 4 C 68,58.6274 62.6274,64 56,64 49.3726,64 44,58.6274 44,52 Z"
     stroke="#C2CCDE"
     stroke-linecap="round"
     stroke-linejoin="round"
     id="path2800"
     style="stroke:#ffffff;stroke-width:4;stroke-dasharray:none;stroke-opacity:1;stroke-width:4" />
  <path
     d="M 68,47 61.1615,20.5007 C 60.4777,17.8513 58.0881,16 55.3518,16 H 52"
     stroke="#C2CCDE"
     stroke-linecap="round"
     stroke-linejoin="round"
     id="path2802"
     style="stroke:#ffffff;stroke-width:4;stroke-dasharray:none;stroke-opacity:1;stroke-width:4" />
</svg>
