<?xml version="1.0" encoding="UTF-8" standalone="no"?>
<svg
   width="80"
   height="80"
   viewBox="0 0 80 80"
   fill="none"
   version="1.1"
   id="svg2605"
   xmlns="http://www.w3.org/2000/svg"
   xmlns:svg="http://www.w3.org/2000/svg">
  <defs
     id="defs2609" />
  <path
     d="m 40,12 3.135,0.1761 3.0956,0.5259 3.0172,0.8693 2.9009,1.2016 2.7482,1.5188 2.5608,1.817 2.3413,2.0923 2.0923,2.3413 1.817,2.5608 1.5188,2.7482 1.2016,2.9009 0.8693,3.0172 0.5259,3.0956 L 68,40 l -0.1761,3.135 -0.5259,3.0956 -0.8693,3.0172 -1.2016,2.9009 -1.5188,2.7482 -1.817,2.5608 -2.0923,2.3413 -2.3413,2.0923 -2.5608,1.817 -2.7482,1.5188 -2.9009,1.2016 L 46.2306,67.298 43.135,67.8239 40,68 36.865,67.8239 33.7694,67.298 30.7522,66.4287 27.8513,65.2271 25.1031,63.7083 22.5423,61.8913 20.201,59.799 18.1087,57.4577 16.2917,54.8969 14.7729,52.1487 13.5713,49.2478 12.702,46.2306 12.1761,43.135 12,40 l 0.1761,-3.135 0.5259,-3.0956 0.8693,-3.0172 1.2016,-2.9009 1.5188,-2.7482 1.817,-2.5608 2.0923,-2.3413 2.3413,-2.0923 2.5608,-1.817 2.7482,-1.5188 2.9009,-1.2016 3.0172,-0.8693 3.0956,-0.5259 z"
     stroke="#C2CCDE"
     stroke-linecap="round"
     stroke-linejoin="round"
     id="path2601"
     style="stroke:#ffffff;stroke-width:4;stroke-dasharray:none;stroke-opacity:1" />
  <path
     d="m 53.0385,38.2724 c 1.323,0.7718 1.323,2.6834 0,3.4552 L 35.0077,52.2455 C 33.6744,53.0233 32,52.0615 32,50.5179 V 29.4821 c 0,-1.5436 1.6744,-2.5053 3.0077,-1.7276 z"
     stroke="#C2CCDE"
     stroke-linecap="round"
     stroke-linejoin="round"
     id="path2603"
     style="stroke:#ffffff;stroke-width:4;stroke-dasharray:none;stroke-opacity:1" />
</svg>
