<?xml version="1.0" encoding="UTF-8" standalone="no"?>
<svg
   width="80"
   height="80"
   viewBox="0 0 80 80"
   fill="none"
   version="1.1"
   id="svg3844"
   xmlns="http://www.w3.org/2000/svg"
   xmlns:svg="http://www.w3.org/2000/svg">
  <defs
     id="defs3848" />
  <path
     d="M 48.5,22.002 H 29.5711 c -4.5276,0 -8.8697,1.7985 -12.0711,5 -3.2014,3.2014 -5,7.5435 -5,12.071 v 1.8579 c 0,3.4668 1.0545,6.8249 2.986,9.6454"
     stroke="#C2CCDE"
     stroke-linecap="round"
     stroke-linejoin="round"
     id="path3836"
     style="stroke:#ffffff;stroke-width:1;stroke-dasharray:none;stroke-opacity:0.5;stroke-width:1" />
  <path
     d="m 31.5,58.0021 h 18.9289 c 4.5276,0 8.8697,-1.7985 12.0711,-5 3.2014,-3.2014 5,-7.5435 5,-12.0711 v -1.8578 c 0,-3.4668 -1.0545,-6.8249 -2.986,-9.6455"
     stroke="#C2CCDE"
     stroke-linecap="round"
     stroke-linejoin="round"
     id="path3838"
     style="stroke:#ffffff;stroke-width:1;stroke-dasharray:none;stroke-opacity:0.5;stroke-width:1" />
  <path
     d="m 48.5,29.759 v -7.7574 -7.7573 c 0,-1.5657 1.8929,-2.3497 3,-1.2427 l 7.409,7.4091 c 0.8787,0.8786 0.8787,2.3033 0,3.1819 l -7.409,7.409 c -1.1071,1.1071 -3,0.323 -3,-1.2426 z"
     stroke="#C2CCDE"
     stroke-linecap="round"
     stroke-linejoin="round"
     id="path3840"
     style="stroke:#ffffff;stroke-width:1;stroke-dasharray:none;stroke-opacity:0.5;stroke-width:1" />
  <path
     d="m 31.5001,50.2443 v 7.7573 7.7574 c 0,1.5656 -1.8929,2.3497 -3,1.2426 l -7.409,-7.409 c -0.8786,-0.8786 -0.8786,-2.3033 0,-3.1819 l 7.4091,-7.4091 c 1.107,-1.107 2.9999,-0.323 2.9999,1.2427 z"
     stroke="#C2CCDE"
     stroke-linecap="round"
     stroke-linejoin="round"
     id="path3842"
     style="stroke:#ffffff;stroke-width:1;stroke-dasharray:none;stroke-opacity:0.5;stroke-width:1" />
</svg>
