<?xml version="1.0" encoding="UTF-8" standalone="no"?>
<svg
   width="80"
   height="80"
   viewBox="0 0 80 80"
   fill="none"
   version="1.1"
   id="svg8"
   xmlns="http://www.w3.org/2000/svg"
   xmlns:svg="http://www.w3.org/2000/svg">
  <defs
     id="defs12" />
  <path
     d="M 63,53 V 22.2426 C 63,19.5261 61.9209,16.9209 60,15 58.0791,13.0791 55.4739,12 52.7574,12 H 13 c 1.2806,0 2.5087,0.5087 3.4142,1.4142 L 17,14 c 1.2806,1.2806 2,3.0174 2,4.8284 v 38.929 c 0,2.7165 1.0791,5.3217 3,7.2426 1.8918,1.8918 4.4475,2.9672 7.1195,2.9993"
     stroke="#C2CCDE"
     stroke-linecap="round"
     stroke-linejoin="round"
     id="path2"
     style="stroke:#ffffff;stroke-width:1;stroke-dasharray:none;stroke-opacity:0.5" />
  <path
     d="M 35.8284,65.1716 36,65 c 1.9209,-1.9209 3,-4.5261 3,-7.2426 V 54 c 0,-0.5523 0.4477,-1 1,-1 h 34 c 0.5523,0 1,0.4477 1,1 v 3.7574 c 0,2.7165 -1.0791,5.3217 -3,7.2426 -1.9209,1.9209 -4.5261,3 -7.2426,3 H 29 c 2.5612,0 5.0174,-1.0174 6.8284,-2.8284 z"
     stroke="#C2CCDE"
     stroke-linecap="round"
     stroke-linejoin="round"
     id="path4"
     style="stroke:#ffffff;stroke-width:1;stroke-dasharray:none;stroke-opacity:0.5" />
  <path
     d="M 19,18.8284 V 29 c 0,0.5523 -0.4477,1 -1,1 H 6 C 5.44772,30 5,29.5523 5,29 V 18.8284 C 5,17.0174 5.71942,15.2806 7,14 c 1.28058,-1.2806 3.0174,-2 4.8284,-2 h 0.3432 C 12.4499,12 13,12 13,12"
     stroke="#C2CCDE"
     stroke-linecap="round"
     stroke-linejoin="round"
     id="path6"
     style="stroke:#ffffff;stroke-width:1;stroke-dasharray:none;stroke-opacity:0.5" />
</svg>
