<?xml version="1.0" encoding="UTF-8" standalone="no"?>
<svg width="80" height="80" viewBox="0 0 80 80" fill="none" version="1.1" id="svg8" xml:space="preserve" xmlns="http://www.w3.org/2000/svg" xmlns:svg="http://www.w3.org/2000/svg">
	<defs id="defs12" />
	<path id="rect6980" style="fill:#eeeeee;fill-opacity:1;stroke:none;stroke-width:4;stroke-linecap:round;stroke-linejoin:round;stroke-dasharray:none;stroke-opacity:1;paint-order:fill markers stroke" d="m 11,16 c -0.1385,0 -0.270906,0.02766 -0.390625,0.07813 -0.119719,0.05047 -0.226031,0.124469 -0.316406,0.214844 -0.09037,0.09038 -0.164375,0.196687 -0.214844,0.316406 C 10.027656,16.729094 10,16.8615 10,17 v 48 c 0,0.1385 0.02766,0.270906 0.07813,0.390625 0.05047,0.119719 0.124469,0.226031 0.214844,0.316406 0.09037,0.09037 0.196687,0.164375 0.316406,0.214844 C 10.729094,65.972344 10.8615,66 11,66 h 58 c 0.1385,0 0.270906,-0.02766 0.390625,-0.07813 0.119719,-0.05047 0.226031,-0.124469 0.316406,-0.214844 0.09037,-0.09037 0.164375,-0.196687 0.214844,-0.316406 C 69.972344,65.270906 70,65.1385 70,65 V 17 C 70,16.8615 69.97234,16.729094 69.92187,16.609375 69.8714,16.489656 69.797401,16.383344 69.707026,16.292969 69.616656,16.202599 69.510339,16.128594 69.39062,16.078125 69.270906,16.027656 69.1385,16 69,16 Z" />
	<path id="rect6194" style="fill:#4f7fee;fill-opacity:1;stroke:none;stroke-width:4;stroke-linecap:round;stroke-linejoin:round;stroke-dasharray:none;stroke-opacity:1;paint-order:fill markers stroke" d="m 10,10 c -2.2159978,0 -4,1.784002 -4,4 v 52 c 0,2.215998 1.7840022,4 4,4 h 60 c 2.215998,0 4,-1.784002 4,-4 V 14 c 0,-2.215998 -1.784002,-4 -4,-4 z m 1,6 h 58 c 0.553999,0 1,0.446001 1,1 v 48 c 0,0.553999 -0.446001,1 -1,1 H 11 c -0.553999,0 -1,-0.446001 -1,-1 V 17 c 0,-0.553999 0.446001,-1 1,-1 z" />
	<path id="rect4" style="fill:#2f80ed;stroke:#2f80ed;stroke-width:4;stroke-linecap:round" d="m 18.5,20.5 h 8 c 2.216,0 4,1.784 4,4 v 33 c 0,2.216 -1.784,4 -4,4 h -8 c -2.216,0 -4,-1.784 -4,-4 v -33 c 0,-2.216 1.784,-4 4,-4 z" />
	<path id="rect6" style="fill:#56ccf2;stroke:#56ccf2;stroke-width:4;stroke-linecap:round" d="m 39.85,20.5 h 22.8 c 1.5789,0 2.85,1.2711 2.85,2.85 v 35.3 c 0,1.5789 -1.2711,2.85 -2.85,2.85 H 39.85 C 38.2711,61.5 37,60.2289 37,58.65 v -35.3 c 0,-1.5789 1.2711,-2.85 2.85,-2.85 z" />
	<path id="path4968" style="fill:#e9ca48;stroke-width:4;stroke-linecap:round;stroke-linejoin:round;paint-order:fill markers stroke" d="m 59,13 a 2,2 0 0 1 -2,2 2,2 0 0 1 -2,-2 2,2 0 0 1 2,-2 2,2 0 0 1 2,2 z" />
	<path id="circle6976" style="fill:#e9ca48;stroke-width:4;stroke-linecap:round;stroke-linejoin:round;paint-order:fill markers stroke" d="m 64,13 a 2,2 0 0 1 -2,2 2,2 0 0 1 -2,-2 2,2 0 0 1 2,-2 2,2 0 0 1 2,2 z" />
	<path id="circle6978" style="fill:#e9ca48;stroke-width:4;stroke-linecap:round;stroke-linejoin:round;paint-order:fill markers stroke" d="m 69,13 a 2,2 0 0 1 -2,2 2,2 0 0 1 -2,-2 2,2 0 0 1 2,-2 2,2 0 0 1 2,2 z" />
</svg>
