<?xml version="1.0" encoding="UTF-8" standalone="no"?>
<svg width="80" height="80" viewBox="0 0 80 80" fill="none" version="1.1" id="svg8" xml:space="preserve" xmlns="http://www.w3.org/2000/svg" xmlns:svg="http://www.w3.org/2000/svg">
	<defs id="defs12" />
	<path id="path14539" style="color:#000000;fill:#c8c8c8;fill-opacity:0.25;stroke-linecap:round;stroke-linejoin:round;paint-order:fill markers stroke" d="m 10,10 c -2.2159956,0 -4,1.784004 -4,4 v 52 c 0,2.215996 1.7840044,4 4,4 h 60 c 2.215996,0 4,-1.784004 4,-4 V 14 c 0,-2.215996 -1.784004,-4 -4,-4 z" />
	<path id="rect4" style="fill:#c8c8c8;fill-opacity:0.25;stroke:#7f7f7f;stroke-width:1;stroke-linecap:round;stroke-dasharray:none;stroke-opacity:1" d="m 16.75,21 h 9.5 c 2.6315,0 4.75,1.914537 4.75,4.292683 v 35.414633 c 0,2.378147 -2.1185,4.292683 -4.75,4.292683 h -9.5 c -2.6315,0 -4.75,-1.914536 -4.75,-4.292683 V 25.292683 C 12,22.914537 14.1185,21 16.75,21 Z" />
	<path id="rect6" style="fill:#c8c8c8;fill-opacity:0.25;stroke:#7f7f7f;stroke-width:1;stroke-linecap:round;stroke-dasharray:none;stroke-opacity:1" d="m 39.65,21 h 25.200001 c 1.7451,0 3.15,1.364108 3.15,3.058537 v 37.882926 c 0,1.694429 -1.4049,3.058536 -3.15,3.058536 H 39.65 c -1.7451,0 -3.15,-1.364107 -3.15,-3.058536 V 24.058537 C 36.5,22.364108 37.9049,21 39.65,21 Z" />
	<path id="path4968" style="fill:#c8c8c8;fill-opacity:1;stroke-width:4;stroke-linecap:round;stroke-linejoin:round;paint-order:fill markers stroke" d="m 59,13.5 a 2,2 0 0 1 -2,2 2,2 0 0 1 -2,-2 2,2 0 0 1 2,-2 2,2 0 0 1 2,2 z" />
	<path id="circle6976" style="fill:#c8c8c8;fill-opacity:1;stroke-width:4;stroke-linecap:round;stroke-linejoin:round;paint-order:fill markers stroke" d="m 64,13.5 a 2,2 0 0 1 -2,2 2,2 0 0 1 -2,-2 2,2 0 0 1 2,-2 2,2 0 0 1 2,2 z" />
	<path id="circle6978" style="fill:#c8c8c8;fill-opacity:1;stroke-width:4;stroke-linecap:round;stroke-linejoin:round;paint-order:fill markers stroke" d="m 69,13.5 a 2,2 0 0 1 -2,2 2,2 0 0 1 -2,-2 2,2 0 0 1 2,-2 2,2 0 0 1 2,2 z" />
	<path id="path14541" style="color:#000000;fill:#7f7f7f;fill-opacity:1;stroke:none;stroke-width:1;stroke-linecap:round;stroke-linejoin:round;stroke-opacity:1;-inkscape-stroke:none;paint-order:fill markers stroke" d="M 10.434783,10 C 7.9864428,10 6,11.982612 6,14.42623 V 65.573771 C 6,68.017389 7.9864428,70 10.434783,70 H 69.565218 C 72.013558,70 74,68.017389 74,65.573771 V 14.42623 C 74,11.982612 72.013558,10 69.565218,10 Z m 0,0.983607 h 59.130435 c 1.919415,0 3.449275,1.526909 3.449275,3.442623 v 1.475409 H 6.9855073 V 14.42623 c 0,-1.915714 1.52986,-3.442623 3.4492757,-3.442623 z M 6.9855073,16.885246 H 73.014493 v 48.688525 c 0,1.915713 -1.52986,3.442623 -3.449275,3.442623 H 10.434783 c -1.9194157,0 -3.4492757,-1.52691 -3.4492757,-3.442623 z" />
	<path style="color:#000000;fill:#ff0000;stroke-linecap:round;stroke-linejoin:round;-inkscape-stroke:none;paint-order:fill markers stroke" d="M 6.0131983,16.000001 H 73.986805" id="path15981" />
</svg>
