<?xml version="1.0" encoding="UTF-8" standalone="no"?>
<svg
   width="80"
   height="80"
   viewBox="0 0 80 80"
   fill="none"
   version="1.1"
   id="svg440"
   xmlns="http://www.w3.org/2000/svg"
   xmlns:svg="http://www.w3.org/2000/svg">
  <defs
     id="defs444" />
  <path
     d="m 16,44.9997 v 0.5 13.5 c 0,2.2091 1.7909,4 4,4 h 40 c 2.2091,0 4,-1.7909 4,-4 v -13.5 -0.5"
     stroke="#56ccf2"
     stroke-width="4"
     stroke-linecap="round"
     stroke-linejoin="round"
     id="path432" />
  <path
     fill-rule="evenodd"
     clip-rule="evenodd"
     d="m 48,31 h 8.4013 c 3.1388,0 4.6811,3.8212 2.4216,6 L 43.8005,51.4859 c -2.0337,1.9611 -5.2547,1.9611 -7.2884,0 L 21.4896,37 c -2.2594,-2.1787 -0.7171,-6 2.4216,-6 H 32 V 19 13 c 0,-1.1046 0.8955,-2 2,-2 h 12 c 1.1046,0 2,0.8954 2,2 v 6 z"
     fill="#56ccf2"
     id="path434" />
  <path
     d="m 48,31 v 1 c -0.5523,0 -1,-0.4477 -1,-1 z m 10.8229,6 0.6942,0.7198 z m -15.0224,14.4859 0.6941,0.7199 v 0 z m -7.2884,0 -0.6942,0.7199 v 0 z M 21.4896,37 20.7955,37.7198 v 0 z M 32,31 h 1 c 0,0.5523 -0.4477,1 -1,1 z m 0,-12 h 1 z M 56.4013,32 H 48 v -2 h 8.4013 z m 1.7275,4.2801 C 59.7406,34.7259 58.6404,32 56.4013,32 v -2 c 4.0385,0 6.0228,4.9166 3.1158,7.7198 z m -15.0224,14.486 15.0224,-14.486 1.3883,1.4397 -15.0225,14.486 z m -5.9002,0 c 1.6463,1.5875 4.2538,1.5875 5.9002,0 l 1.3882,1.4397 c -2.4211,2.3346 -6.2556,2.3346 -8.6767,0 z M 22.1837,36.2801 37.2062,50.7661 35.8179,52.2058 20.7955,37.7198 Z M 23.9112,32 c -2.239,0 -3.3392,2.7259 -1.7275,4.2801 l -1.3882,1.4397 C 17.8884,34.9166 19.8728,30 23.9112,30 Z M 32,32 H 23.9112 V 30 H 32 Z M 33,19 V 31 H 31 V 19 Z m 0,-6 v 6 h -2 v -6 z m 1,-1 c -0.5523,0 -1,0.4477 -1,1 h -2 c 0,-1.6569 1.3432,-3 3,-3 z m 12,0 H 34 v -2 h 12 z m 1,1 c 0,-0.5523 -0.4477,-1 -1,-1 v -2 c 1.6569,0 3,1.3431 3,3 z m 0,6 v -6 h 2 v 6 z m 0,12 V 19 h 2 v 12 z"
     fill="#56ccf2"
     id="path436" />
  <path
     d="M 56.4013,30.9997 H 23.9112 c -3.1388,0 -4.6811,3.8213 -2.4216,6 L 36.512,51.4856 c 2.0337,1.9611 5.2547,1.9611 7.2884,0 L 58.8229,36.9997 c 2.2594,-2.1787 0.7171,-6 -2.4216,-6 z"
     fill="#2f80ed"
     stroke="#2f80ed"
     stroke-width="2"
     stroke-linecap="round"
     stroke-linejoin="round"
     id="path438" />
</svg>
