<?xml version="1.0" encoding="UTF-8" standalone="no"?>
<svg width="80" height="80" viewBox="0 0 80 80" fill="none" version="1.1" id="svg6" xmlns="http://www.w3.org/2000/svg" xmlns:svg="http://www.w3.org/2000/svg">
	<defs id="defs10" />
	<path d="m 46.414051,24.858033 c 0.78107,-0.78107 2.047357,-0.78107 2.828427,0 0.78107,0.78107 0.78107,2.047357 0,2.828427 z M 29.443842,61.627232 c 0.78107,0.78107 0.78107,2.047357 0,2.828427 -0.78107,0.78107 -2.047357,0.78107 -2.828427,0 z M 49.242478,27.68646 26.615415,50.313524 23.786988,47.485097 46.414051,24.858033 Z m -22.627063,31.112345 2.828427,2.828427 -2.828427,2.828427 -2.828427,-2.828427 z m 0,-8.485281 c -2.34314,2.343139 -2.34314,6.142141 0,8.485281 l -2.828427,2.828427 c -3.905281,-3.90528 -3.905281,-10.236855 0,-14.142135 z" style="fill:#56ccf2" id="path2" />
	<path d="m 40.514518,18.9585 14.627423,14.627423 c 1.476156,1.476156 4.000032,0.430699 4.000032,-1.656822 V 17.958509 c 0,-1.656892 -1.343149,-3.000042 -2.999971,-2.999971 H 42.17141 c -2.08752,0 -3.132978,2.523876 -1.656892,3.999962 z" style="fill:#2f80ed" id="path4" />
</svg>
