<?xml version="1.0" encoding="UTF-8" standalone="no"?>
<svg width="80" height="80" viewBox="0 0 80 80" fill="none" version="1.1" id="svg1383" xmlns="http://www.w3.org/2000/svg" xmlns:svg="http://www.w3.org/2000/svg">
	<defs id="defs1387" />
	<path d="m 52.627803,28.338263 c 1.1046,0 2,-0.8954 2,-2 0,-1.1046 -0.8954,-2 -2,-2 z m -20.0002,-2 v -2 z m 22,40 v -2 z m 6,2 c 1.1046,0 2,-0.8954 2,-2 0,-1.1046 -0.8954,-2 -2,-2 z m -7.9998,-44 h -20.0002 v 4 h 20.0002 z m -20.0002,44 h 8 v -4 h -8 z m 8,0 h 14 v -4 h -14 z m 14,0 h 6 v -4 h -6 z m -44,-22 c 0,12.1503 9.8497,22 22,22 v -4 c -9.9411,0 -18,-8.0589 -18,-18 z m 22,-22 c -12.1503,0 -22,9.8497 -22,22 h 4 c 0,-9.9411 8.0589,-18 18,-18 z" style="fill:#56ccf2" id="path1379" />
	<path d="m 52.627603,36.681363 v -20.6862 c 0,-2.0876 2.5239,-3.133 4,-1.6569 l 9.8787,9.8787 c 1.1716,1.1716 1.1716,3.071 0,4.2426 l -9.8787,9.8787 c -1.4761,1.4761 -4,0.4307 -4,-1.6569 z" style="fill:#2f80ed;stroke:#2f80ed;stroke-width:4;stroke-linecap:round;stroke-linejoin:round" id="path1381" />
</svg>
