<?xml version="1.0" encoding="UTF-8" standalone="no"?>
<svg
   width="80"
   height="80"
   viewBox="0 0 80 80"
   fill="none"
   version="1.1"
   id="svg6"
   xmlns="http://www.w3.org/2000/svg"
   xmlns:svg="http://www.w3.org/2000/svg">
  <defs
     id="defs10" />
  <path
     d="m 65.1984,22.2273 -7.4246,-7.4246 c -1.0925,-1.0925 -0.4689,-2.9635 1.0606,-3.182 l 7.1772,-1.0253 c 1.9799,-0.2828 3.6769,1.4142 3.3941,3.3941 l -1.0253,7.1772 c -0.2185,1.5295 -2.0894,2.1532 -3.182,1.0606 z"
     fill="#C2CCDE"
     fill-opacity="0.25"
     id="path2"
     style="fill:#c8c8c8;fill-opacity:0.25;stroke:#7f7f7f;stroke-opacity:1" />
  <path
     d="M 44,15.9997 H 18 c -1.1046,0 -2,0.8955 -2,2 v 44 c 0,1.1046 0.8954,2 2,2 h 44 c 1.1046,0 2,-0.8954 2,-2 v -26 M 61.4853,18.5142 36.0292,43.9702 m 21.7446,-29.1675 7.4246,7.4246 c 1.0926,1.0926 2.9635,0.4689 3.182,-1.0606 l 1.0253,-7.1772 c 0.2828,-1.9799 -1.4142,-3.6769 -3.3941,-3.3941 l -7.1772,1.0253 c -1.5295,0.2185 -2.1531,2.0895 -1.0606,3.182 z"
     stroke="#C2CCDE"
     stroke-linecap="round"
     stroke-linejoin="round"
     id="path4"
     style="stroke:#7f7f7f;stroke-opacity:1" />
</svg>
