<?xml version="1.0" encoding="UTF-8" standalone="no"?>
<svg
   width="80"
   height="80"
   viewBox="0 0 80 80"
   fill="none"
   version="1.1"
   id="svg25977"
   xmlns="http://www.w3.org/2000/svg"
   xmlns:svg="http://www.w3.org/2000/svg">
  <defs
     id="defs25981" />
  <path
     d="m 48,32 h 8.4013 c 3.1388,0 4.681,3.8213 2.4216,6 L 43.8005,52.4859 c -2.0338,1.9611 -5.2547,1.9611 -7.2885,0 L 21.4896,38 c -2.2594,-2.1787 -0.7172,-6 2.4216,-6 H 32 V 14 c 0,-1.1046 0.8954,-2 2,-2 h 12 c 1.1046,0 2,0.8954 2,2 z"
     fill="#C2CCDE"
     fill-opacity="0.25"
     id="path25973"
     style="fill:#c8c8c8;fill-opacity:0.25" />
  <path
     d="m 16,46 v 14 c 0,2.2091 1.7909,4 4,4 h 40 c 2.2091,0 4,-1.7909 4,-4 V 46 M 56.4013,32 H 48 V 14 c 0,-1.1046 -0.8954,-2 -2,-2 H 34 c -1.1046,0 -2,0.8954 -2,2 v 18 h -8.0888 c -3.1388,0 -4.681,3.8213 -2.4216,6 L 36.512,52.4859 c 2.0338,1.9611 5.2547,1.9611 7.2885,0 L 58.8229,38 c 2.2594,-2.1787 0.7172,-6 -2.4216,-6 z"
     stroke="#C2CCDE"
     stroke-linecap="round"
     stroke-linejoin="round"
     id="path25975"
     style="stroke:#7f7f7f;stroke-opacity:1" />
</svg>
