<?xml version="1.0" encoding="UTF-8" standalone="no"?>
<svg width="80" height="80" viewBox="0 0 80 80" fill="none" version="1.1" id="svg3234" xmlns="http://www.w3.org/2000/svg" xmlns:svg="http://www.w3.org/2000/svg">
	<defs id="defs3238" />
	<path d="m 42.418,56.5961 v 16.8076 c 0,1.6961 -2.0506,2.5455 -3.25,1.3462 l -7.6286,-7.6287 c -1.1716,-1.1716 -1.1716,-3.071 0,-4.2426 l 7.6286,-7.6287 c 1.1994,-1.1993 3.25,-0.3499 3.25,1.3462 z" id="path3228" style="fill:#c8c8c8;fill-opacity:0.25" />
	<path d="M 36.5587,23.4037 V 6.5961 c 0,-1.69611 2.0506,-2.54553 3.25,-1.34619 l 7.6287,7.62869 c 1.1715,1.1716 1.1715,3.0711 0,4.2426 l -7.6287,7.6287 c -1.1994,1.1993 -3.25,0.3499 -3.25,-1.3462 z" id="path3230" style="fill:#c8c8c8;fill-opacity:0.25" />
	<path d="m 42.5255,65.6995 c 2.3713,-0.2713 4.7138,-0.8718 6.9582,-1.8014 6.3385,-2.6255 11.3744,-7.6615 14,-14 2.6255,-6.3386 2.6255,-13.4605 0,-19.799 -1.4478,-3.4952 -3.6284,-6.5942 -6.3562,-9.1115 M 42.5083,65.7015 c -0.03,0.0034 -0.0601,0.0067 -0.0902,0.01 M 36.4512,14.3003 c -2.3712,0.2713 -4.7138,0.8718 -6.9581,1.8014 -6.3386,2.6256 -11.3745,7.6615 -14,14 -2.6256,6.3386 -2.6256,13.4605 0,19.799 1.4477,3.4952 3.6283,6.5942 6.3561,9.1115 M 36.4684,14.2984 c 0.0301,-0.0035 0.0601,-0.0068 0.0902,-0.0101 M 42.418,73.4037 V 56.5961 c 0,-1.6961 -2.0506,-2.5455 -3.25,-1.3462 l -7.6286,7.6287 c -1.1716,1.1716 -1.1716,3.071 0,4.2426 l 7.6286,7.6287 c 1.1994,1.1993 3.25,0.3499 3.25,-1.3462 z M 36.5587,6.5961 v 16.8076 c 0,1.6961 2.0506,2.5455 3.25,1.3462 l 7.6287,-7.6287 c 1.1715,-1.1715 1.1715,-3.071 0,-4.2426 L 39.8087,5.24991 c -1.1994,-1.19934 -3.25,-0.34992 -3.25,1.34619 z" id="path3232" style="stroke:#7f7f7f;stroke-opacity:1;stroke-width:1;stroke-linecap:round;stroke-linejoin:round" />
</svg>
