<?xml version="1.0" encoding="UTF-8" standalone="no"?>
<svg width="80" height="80" viewBox="0 0 80 80" fill="none" version="1.1" id="svg6" xmlns="http://www.w3.org/2000/svg" xmlns:svg="http://www.w3.org/2000/svg">
	<defs id="defs10" />
	<path d="m 27.377078,36.686767 v -20.6863 c 0,-2.0875 -2.5239,-3.1329 -4,-1.6568 l -9.8786,9.8786 c -1.1716,1.1716 -1.1716,3.0711 0,4.2427 l 9.8786,9.8787 c 1.4761,1.4761 4,0.4306 4,-1.6569 z" id="path2" style="fill:#c8c8c8;fill-opacity:0.25" />
	<path d="m 27.376878,26.343667 h 20.0002 c 11.0457,0 20,8.9543 20,20 0,11.0457 -8.9543,20 -20,20 h -28 m 8,-50.3432 v 20.6863 c 0,2.0875 -2.5239,3.133 -4,1.6569 l -9.8786,-9.8787 c -1.1716,-1.1716 -1.1716,-3.0711 0,-4.2427 l 9.8786,-9.8786 c 1.4761,-1.4761 4,-0.4307 4,1.6568 z" id="path4" style="stroke:#7f7f7f;stroke-opacity:1;stroke-width:1;stroke-linecap:round;stroke-linejoin:round" />
</svg>
