<?xml version="1.0" encoding="UTF-8" standalone="no"?>
<svg
   width="80"
   height="80"
   viewBox="0 0 80 80"
   fill="none"
   version="1.1"
   id="svg1388"
   xmlns="http://www.w3.org/2000/svg"
   xmlns:svg="http://www.w3.org/2000/svg">
  <defs
     id="defs1392" />
  <path
     d="m 39.513114,19.958331 14.627423,14.627423 c 1.476085,1.476086 4.000032,0.430699 4.000032,-1.656822 l -7.1e-5,-13.97052 c 0,-1.656893 -1.343149,-3.000042 -3.000042,-3.000042 h -13.97045 c -2.08752,0 -3.132978,2.523876 -1.656892,3.999961 z"
     fill="#C2CCDE"
     fill-opacity="0.25"
     id="path1384"
     style="fill:#c8c8c8;fill-opacity:0.25;stroke:#7f7f7f;stroke-opacity:1" />
  <path
     d="M 46.826507,27.272432 24.199443,49.899495 c -3.124209,3.12421 -3.124209,8.189499 0,11.313709 l 2.828428,2.828427 M 54.140537,34.585754 39.513114,19.958331 C 38.037028,18.482246 39.082486,15.95837 41.170006,15.95837 h 13.97045 c 1.656893,0 3.000042,1.343149 3.000042,3.000042 l 7.1e-5,13.97052 c 0,2.087521 -2.523947,3.132908 -4.000032,1.656822 z"
     stroke="#C2CCDE"
     stroke-linecap="round"
     stroke-linejoin="round"
     id="path1386"
     style="stroke:#7f7f7f;stroke-opacity:1" />
</svg>
