<?xml version="1.0" encoding="UTF-8" standalone="no"?>
<svg
   width="80"
   height="80"
   viewBox="0 0 80 80"
   fill="none"
   version="1.1"
   id="svg1388"
   xmlns="http://www.w3.org/2000/svg"
   xmlns:svg="http://www.w3.org/2000/svg">
  <defs
     id="defs1392" />
  <path
     d="m 29.6569,27.9995 h 20.6863 c 2.0875,0 3.133,-2.5239 1.6569,-4 l -9.8787,-9.8786 c -1.1716,-1.1716 -3.0711,-1.1716 -4.2427,0 l -9.8786,9.8786 c -1.4761,1.4761 -0.4307,4 1.6568,4 z"
     fill="#C2CCDE"
     fill-opacity="0.25"
     id="path1384"
     style="fill:#c8c8c8;fill-opacity:0.25;stroke:#7f7f7f;stroke-opacity:1" />
  <path
     d="m 40.0001,28 v 31.9995 c 0,4.4183 3.5817,8 8,8 h 4 m -1.6569,-40 H 29.6569 c -2.0875,0 -3.1329,-2.5239 -1.6568,-4 l 9.8786,-9.8786 c 1.1716,-1.1716 3.0711,-1.1716 4.2427,0 l 9.8787,9.8786 c 1.4761,1.4761 0.4306,4 -1.6569,4 z"
     stroke="#C2CCDE"
     stroke-linecap="round"
     stroke-linejoin="round"
     id="path1386"
     style="stroke:#7f7f7f;stroke-opacity:1" />
</svg>
