<?xml version="1.0" encoding="UTF-8" standalone="no"?>
<svg
   width="80"
   height="80"
   viewBox="0 0 80 80"
   fill="none"
   version="1.1"
   id="svg6"
   xmlns="http://www.w3.org/2000/svg"
   xmlns:svg="http://www.w3.org/2000/svg">
  <defs
     id="defs10" />
  <path
     d="m 66.91545,38.04775 c 1.1046,7e-4 1.9994,0.8967 1.9987,2.0013 -7e-4,1.1045 -0.8967,1.9994 -2.0013,1.9987 z m -0.8295,1.9994 0.0013,-2 z m -1,-6e-4 -0.0013,2 z m -1,-7e-4 -0.0013,2 z m -1,-6e-4 0.0013,-2 z m -1,-7e-4 -0.0013,2 z m -1,-6e-4 0.0013,-2 z m -1,-7e-4 v -2 h 0.0013 z m -18.9629,2 c -1.1046,0 -2,-0.8954 -2,-2 0,-1.1046 0.8954,-2 2,-2 z m -0.0371,-4 c 1.1045,0 2,0.8954 2,2 0,1.1046 -0.8955,2 -2,2 z m -28.0001,4 c -1.1045,0 -2,-0.8954 -2,-2 0,-1.1046 0.8955,-2 2,-2 z m 53.827,0.0045 -0.8282,-6e-4 0.0026,-4 0.8282,6e-4 z m -0.8282,-6e-4 -1,-6e-4 0.0026,-4 1,6e-4 z m -1,-6e-4 -1,-7e-4 0.0026,-4 1,7e-4 z m -1,-7e-4 -1,-6e-4 0.0026,-4 1,6e-4 z m -1,-6e-4 -1,-7e-4 0.0026,-4 1,7e-4 z m -1,-7e-4 -1,-6e-4 0.0026,-4 1,6e-4 z m -1,-6e-4 -1,-7e-4 0.0026,-4 1,7e-4 z m -0.9987,-7e-4 h -18.9629 v -4 h 18.9629 z m -19,0 h -28.0001 v -4 h 28.0001 z"
     fill="#56ccf2"
     id="path2" />
  <path
     d="m 41.08605,12.08605 24.2877,24.2877 c 2.0502,2.0502 2.0502,5.3744 0,7.4246 l -24.2877,24.2877"
     stroke="#2f80ed"
     stroke-width="4"
     stroke-linecap="round"
     stroke-linejoin="round"
     id="path4" />
</svg>
