<?xml version="1.0" encoding="UTF-8" standalone="no"?>
<svg
   width="80"
   height="80"
   viewBox="0 0 80 80"
   fill="none"
   version="1.1"
   id="svg6"
   xml:space="preserve"
   xmlns="http://www.w3.org/2000/svg"
   xmlns:svg="http://www.w3.org/2000/svg"><defs
     id="defs10" /><path
     fill-rule="evenodd"
     clip-rule="evenodd"
     d="m 30,54.9999 v -17.998 -8.0016 c 0,-2.2094 1.7913,-4.0004 4.0007,-4 l 8.1898,0.0015 7.8095,-9e-4 v -8.0006 c 0,-2.2094 -1.7913,-4.0004 -4.0007,-4 L 37.8095,13.0018 22.0004,13 C 19.7911,12.9998 18,14.7907 18,17 v 33.9999 c 0,2.2092 1.7909,4 4,4 z"
     fill="#f2c94c"
     id="path2" /><path
     d="m 34,66.9999 c -2.2091,0 -4,-1.7908 -4,-4 v -25.998 -8.0016 c 0,-2.2094 1.7913,-4.0004 4.0007,-4 L 42.1905,25.0018 57.9996,25 C 60.2089,24.9998 62,26.7907 62,29 v 33.9999 c 0,2.2092 -1.7909,4 -4,4 z"
     fill="#f2994a"
     id="path4" /><g
     style="fill:none"
     id="g150"
     transform="matrix(0.47058824,0,0,0.47058824,27.336847,27.17642)"><path
       d="m 25.6592,48 v 10 c 0,7.732 6.268,14 14,14 v 0 c 7.732,0 14,-6.268 14,-14 V 48"
       stroke="#2f80ed"
       stroke-width="4"
       stroke-linecap="round"
       stroke-linejoin="round"
       id="path135" /><path
       d="M 25.6592,32 V 22 c 0,-7.732 6.268,-14 14,-14 v 0 c 7.732,0 14,6.268 14,14 v 10"
       stroke="#2f80ed"
       stroke-width="4"
       stroke-linecap="round"
       stroke-linejoin="round"
       id="path137" /><path
       d="M 39.6592,53 V 27"
       stroke="#f2c94c"
       stroke-width="4"
       stroke-linecap="round"
       stroke-linejoin="round"
       id="path139"
       style="stroke:#2f80ed;stroke-opacity:1" /></g></svg>
