<?xml version="1.0" encoding="UTF-8" standalone="no"?>
<svg
   width="80"
   height="80"
   viewBox="0 0 80 80"
   fill="none"
   version="1.1"
   id="svg881"
   xmlns="http://www.w3.org/2000/svg"
   xmlns:svg="http://www.w3.org/2000/svg">
  <defs
     id="defs885" />
  <path
     d="m 30,16.6441 h -7 c -2.7614,0 -5,2.2385 -5,5 V 61 c 0,2.7614 2.2386,5 5,5 h 34 c 2.7614,0 5,-2.2386 5,-5 V 21.6441 c 0,-2.7614 -2.2386,-5 -5,-5 h -7 c 0,1.947 -1.5784,3.5254 -3.5254,3.5254 H 33.5254 C 31.5784,20.1695 30,18.5911 30,16.6441 Z"
     fill="#C2CCDE"
     fill-opacity="0.25"
     id="path873"
     style="fill:#c8c8c8;fill-opacity:0.25;stroke:#7f7f7f;stroke-opacity:1" />
  <path
     d="m 30,16.6441 c 0,-1.9471 1.5784,-3.5254 3.5254,-3.5254 h 12.9492 c 1.947,0 3.5254,1.5783 3.5254,3.5254 0,1.947 -1.5784,3.5254 -3.5254,3.5254 H 33.5254 C 31.5784,20.1695 30,18.5911 30,16.6441 Z"
     fill="#C2CCDE"
     fill-opacity="0.25"
     id="path875"
     style="fill:#c8c8c8;fill-opacity:0.25;stroke:#7f7f7f;stroke-opacity:1" />
  <path
     d="m 46,32.8209 v 20.6863 c 0,2.0875 -2.5239,3.133 -4,1.6569 l -9.1716,-9.1716 c -1.5621,-1.5621 -1.5621,-4.0948 0,-5.6569 L 42,31.1641 c 1.4761,-1.4761 4,-0.4307 4,1.6568 z"
     fill="#C2CCDE"
     fill-opacity="0.25"
     id="path877"
     style="fill:#c8c8c8;fill-opacity:0.25;stroke:#7f7f7f;stroke-opacity:1" />
  <path
     d="m 30,16.6441 h -7 c -2.7614,0 -5,2.2385 -5,5 V 61 c 0,2.7614 2.2386,5 5,5 h 34 c 2.7614,0 5,-2.2386 5,-5 V 21.6441 c 0,-2.7614 -2.2386,-5 -5,-5 h -7 m -20,0 c 0,1.947 1.5784,3.5254 3.5254,3.5254 h 12.9492 c 1.947,0 3.5254,-1.5784 3.5254,-3.5254 m -20,0 c 0,-1.9471 1.5784,-3.5254 3.5254,-3.5254 h 12.9492 c 1.947,0 3.5254,1.5783 3.5254,3.5254 M 46,43.1662 H 70.0007 M 46,53.5072 V 32.8209 c 0,-2.0875 -2.5239,-3.1329 -4,-1.6568 l -9.1716,9.1715 c -1.5621,1.5621 -1.5621,4.0948 0,5.6569 L 42,55.1641 c 1.4761,1.4761 4,0.4306 4,-1.6569 z"
     stroke="#C2CCDE"
     stroke-linecap="round"
     stroke-linejoin="round"
     id="path879"
     style="stroke:#7f7f7f;stroke-opacity:1" />
</svg>
