<?xml version="1.0" encoding="UTF-8" standalone="no"?>
<svg
   width="80"
   height="80"
   viewBox="0 0 80 80"
   fill="none"
   version="1.1"
   id="svg869"
   xmlns="http://www.w3.org/2000/svg"
   xmlns:svg="http://www.w3.org/2000/svg">
  <defs
     id="defs873" />
  <path
     d="M 16.1038,40.3093 C 17.2409,37.1254 20.2568,35 23.6378,35 H 68.324 c 2.7661,0 4.6973,2.7404 3.767,5.3453 l -7.1429,20 C 64.3795,61.9373 62.8716,63 61.1811,63 H 10.838 C 9.45495,63 8.48935,61.6298 8.95453,60.3273 Z"
     fill="#C2CCDE"
     fill-opacity="0.25"
     id="path863"
     style="fill:#c8c8c8;fill-opacity:0.25" />
  <path
     d="m 8,21 c 0,-2.2091 1.79086,-4 4,-4 h 11.0318 c 1.2902,0 2.5012,0.6223 3.2523,1.6713 l 4.1916,5.8541 C 30.689,24.8233 31.0329,25 31.3992,25 H 60 c 2.2091,0 4,1.7909 4,4 v 6 H 23.6378 c -3.381,0 -6.3969,2.1254 -7.534,5.3093 L 8.95453,60.3273 C 8.80685,60.7408 8.80338,61.1611 8.91167,61.5423 8.34209,60.8511 8,59.9655 8,59 Z"
     fill="#C2CCDE"
     fill-opacity="0.25"
     id="path865"
     style="fill:#c8c8c8;fill-opacity:0.25" />
  <path
     d="M 8.95453,60.3273 16.1038,40.3093 C 17.2409,37.1254 20.2568,35 23.6378,35 M 8.95453,60.3273 C 8.48935,61.6298 9.45495,63 10.838,63 h 50.3431 c 1.6905,0 3.1984,-1.0627 3.767,-2.6547 l 7.1429,-20 C 73.0213,37.7404 71.0901,35 68.324,35 H 23.6378 M 8.95453,60.3273 C 8.80685,60.7408 8.80338,61.1611 8.91167,61.5423 8.34209,60.8511 8,59.9655 8,59 V 21 c 0,-2.2091 1.79086,-4 4,-4 h 11.0318 c 1.2902,0 2.5012,0.6223 3.2523,1.6713 l 4.1916,5.8541 C 30.689,24.8233 31.0329,25 31.3992,25 H 60 c 2.2091,0 4,1.7909 4,4 v 6 H 23.6378"
     stroke="#C2CCDE"
     stroke-linecap="round"
     stroke-linejoin="round"
     id="path867"
     style="stroke:#7f7f7f;stroke-opacity:1" />
</svg>
