<?xml version="1.0" encoding="UTF-8" standalone="no"?>
<svg
   width="80"
   height="80"
   viewBox="0 0 80 80"
   fill="none"
   version="1.1"
   id="svg4203"
   xmlns="http://www.w3.org/2000/svg"
   xmlns:svg="http://www.w3.org/2000/svg">
  <defs
     id="defs4207" />
  <path
     d="m 28.2273,14.1347 c 0,-0.0452 0.001,-0.0901 0.0031,-0.1347 H 21.5 c -2.7614,0 -5,2.2385 -5,5 v 38 c 0,2.7614 2.2386,5 5,5 h 10 V 40.5717 c 0,-1.0543 0.4163,-2.0661 1.1583,-2.8151 L 43.1276,27.1885 c 0.7511,-0.7582 1.774,-1.1848 2.8413,-1.1849 L 54.5,26.0026 V 19 c 0,-2.7615 -2.2386,-5 -5,-5 h -6.7304 c 0.0021,0.0446 0.0031,0.0895 0.0031,0.1347 0,1.5726 -1.2748,2.8475 -2.8474,2.8475 h -8.8506 c -1.5726,0 -2.8474,-1.2749 -2.8474,-2.8475 z"
     fill="#C2CCDE"
     fill-opacity="0.25"
     id="path4193"
     style="fill:#c8c8c8;fill-opacity:0.25" />
  <path
     d="m 43.23,27.0888 c 0.7403,-0.6958 1.7194,-1.0851 2.7389,-1.0852 l 13.5306,-0.0015 c 2.2094,-3e-4 4.0005,1.7907 4.0005,4 V 64.002 c 0,2.2091 -1.7909,4 -4,4 h -24 c -2.2091,0 -4,-1.7909 -4,-4 V 40.5717 c 0,-1.0167 0.3871,-1.9937 1.0801,-2.7338 -0.3475,0.4254 -0.0497,1.0858 0.5199,1.0858 h 7.2 c 2.2091,0 4,-1.7909 4,-4 v -7.3078 c 0,-0.5631 -0.6469,-0.8582 -1.07,-0.5271 z"
     fill="#C2CCDE"
     fill-opacity="0.25"
     id="path4195"
     style="fill:#c8c8c8;fill-opacity:0.25" />
  <path
     d="M 32.6259,37.7864 43.1633,27.1477 C 43.581,26.7259 44.3,27.0223 44.3,27.6159 v 7.3078 c 0,2.2091 -1.7909,4 -4,4 h -7.2 c -0.5929,0 -0.8913,-0.7161 -0.4741,-1.1373 z"
     fill="#C2CCDE"
     fill-opacity="0.25"
     id="path4197"
     style="fill:#c8c8c8;fill-opacity:0.25" />
  <path
     d="m 28.2273,14.1347 c 0,-1.5726 1.2751,-2.8466 2.8477,-2.8466 h 8.8505 c 1.5726,0 2.8472,1.274 2.8472,2.8466 0,1.5726 -1.2748,2.8475 -2.8474,2.8475 h -8.8506 c -1.5726,0 -2.8474,-1.2749 -2.8474,-2.8475 z"
     fill="#C2CCDE"
     fill-opacity="0.25"
     id="path4199"
     style="fill:#c8c8c8;fill-opacity:0.25" />
  <path
     d="m 28.2273,14.1347 c 0,-0.0452 0.001,-0.0901 0.0031,-0.1347 H 21.5 c -2.7614,0 -5,2.2385 -5,5 v 38 c 0,2.7614 2.2386,5 5,5 h 10 V 40.5717 m -3.2727,-26.437 c 0,1.5726 1.2748,2.8475 2.8474,2.8475 h 8.8506 c 1.5726,0 2.8474,-1.2749 2.8474,-2.8475 m -14.5454,0 c 0,-1.5726 1.2751,-2.8466 2.8477,-2.8466 h 8.8505 c 1.5726,0 2.8472,1.274 2.8472,2.8466 M 31.5,40.5717 c 0,-1.0543 0.4163,-2.0661 1.1583,-2.8151 L 43.1276,27.1885 c 0.7511,-0.7582 1.774,-1.1848 2.8413,-1.1849 M 31.5,40.5717 V 64.002 c 0,2.2091 1.7909,4 4,4 h 24 c 2.2091,0 4,-1.7909 4,-4 V 30.0021 c 0,-2.2093 -1.7911,-4.0003 -4.0005,-4 L 45.9689,26.0036 M 31.5,40.5717 c 0,-1.0167 0.3871,-1.9937 1.0801,-2.7338 -0.3475,0.4254 -0.0497,1.0858 0.5199,1.0858 M 45.9689,26.0036 54.5,26.0026 V 19 c 0,-2.7615 -2.2386,-5 -5,-5 h -6.7304 c 0.0021,0.0446 0.0031,0.0895 0.0031,0.1347 m 3.1962,11.8689 c -1.0195,10e-5 -1.9986,0.3894 -2.7389,1.0852 0.4231,-0.3311 1.07,-0.036 1.07,0.5271 M 33.1,38.9237 h 7.2 c 2.2091,0 4,-1.7909 4,-4 V 27.6159 M 33.1,38.9237 c -0.5929,0 -0.8913,-0.7161 -0.4741,-1.1373 L 43.1633,27.1477 C 43.581,26.7259 44.3,27.0223 44.3,27.6159"
     stroke="#C2CCDE"
     stroke-linecap="round"
     stroke-linejoin="round"
     id="path4201"
     style="stroke:#7f7f7f;stroke-opacity:1" />
</svg>
