<?xml version="1.0" encoding="UTF-8" standalone="no"?>
<svg
   width="80"
   height="80"
   viewBox="0 0 80 80"
   fill="none"
   version="1.1"
   id="svg5240"
   xmlns="http://www.w3.org/2000/svg"
   xmlns:svg="http://www.w3.org/2000/svg">
  <defs
     id="defs5244" />
  <path
     fill-rule="evenodd"
     clip-rule="evenodd"
     d="m 31.2197,54.8994 c 0.2073,-0.0448 0.4079,-0.1342 0.587,-0.2694 l 11.2631,-8.5084 c 0.1874,-0.1415 0.3389,-0.3251 0.4424,-0.5359 L 57.6448,16.7948 c 0.3511,-0.7151 0.0819,-1.5799 -0.613,-1.9694 -0.6948,-0.3896 -1.573,-0.168 -1.9999,0.5046 l -17.1192,26.9707 -7.9988,9.9677 c 0.6217,0.7809 1.063,1.6804 1.3058,2.631 z m 9.2809,-12.0907 c 0.4783,0.2762 0.6422,0.8877 0.3661,1.366 -0.2762,0.4783 -0.8878,0.6422 -1.3661,0.3661 -0.4783,-0.2762 -0.6421,-0.8878 -0.366,-1.3661 0.2761,-0.4783 0.8877,-0.6421 1.366,-0.366 z"
     fill="#C2CCDE"
     fill-opacity="0.25"
     id="path5230"
     style="fill:#c8c8c8;fill-opacity:0.25" />
  <path
     fill-rule="evenodd"
     clip-rule="evenodd"
     d="M 48.7799,54.8994 C 48.5725,54.8546 48.3719,54.7652 48.1929,54.63 L 36.9297,46.1216 C 36.7424,45.9801 36.5908,45.7965 36.4874,45.5857 L 22.3547,16.7948 c -0.351,-0.7151 -0.0818,-1.5799 0.613,-1.9694 0.6949,-0.3896 1.5731,-0.168 2,0.5046 l 17.1192,26.9707 7.9988,9.9677 c -0.6217,0.7809 -1.063,1.6804 -1.3058,2.631 z m -9.281,-12.0907 c -0.4783,0.2762 -0.6421,0.8878 -0.366,1.366 0.2762,0.4783 0.8877,0.6422 1.366,0.3661 0.4783,-0.2762 0.6422,-0.8878 0.3661,-1.3661 -0.2762,-0.4782 -0.8878,-0.6421 -1.3661,-0.366 z"
     fill="#C2CCDE"
     fill-opacity="0.25"
     id="path5232"
     style="fill:#c8c8c8;fill-opacity:0.25" />
  <path
     fill-rule="evenodd"
     clip-rule="evenodd"
     d="M 31.2197,54.8994 C 30.9635,53.8962 30.4865,52.95 29.8094,52.14 c 0.0355,0.0423 0.0702,0.0853 0.1045,0.1284 0.6217,0.7809 1.063,1.6804 1.3058,2.631 z"
     fill="#c2ccde"
     fill-opacity="0.25"
     id="path5234" />
  <path
     fill-rule="evenodd"
     clip-rule="evenodd"
     d="m 48.7799,54.8994 c 0.2428,-0.9506 0.6841,-1.8501 1.3058,-2.631 0.0343,-0.0431 0.069,-0.0861 0.1044,-0.1284 -0.677,0.81 -1.154,1.7562 -1.4102,2.7594 z"
     fill="#c2ccde"
     fill-opacity="0.25"
     id="path5236" />
  <path
     d="m 31.2197,54.8994 c 0.2073,-0.0448 0.4079,-0.1342 0.587,-0.2694 l 11.2631,-8.5084 c 0.1874,-0.1415 0.3389,-0.3251 0.4424,-0.5359 L 57.6448,16.7948 c 0.3511,-0.7151 0.0819,-1.5799 -0.613,-1.9694 -0.6948,-0.3896 -1.573,-0.168 -1.9999,0.5046 l -17.1192,26.9707 -7.9988,9.9677 m 1.3058,2.631 c -0.2428,-0.9506 -0.6841,-1.8501 -1.3058,-2.631 m 1.3058,2.631 C 30.9635,53.8962 30.4865,52.95 29.8094,52.14 m 0.1045,0.1284 C 29.8796,52.2253 29.8449,52.1823 29.8094,52.14 m 18.9705,2.7594 C 48.5725,54.8546 48.3719,54.7652 48.1929,54.63 L 36.9297,46.1216 C 36.7424,45.9801 36.5908,45.7965 36.4874,45.5857 L 22.3547,16.7948 c -0.351,-0.7151 -0.0818,-1.5799 0.613,-1.9694 0.6949,-0.3896 1.5731,-0.168 2,0.5046 l 17.1192,26.9707 7.9988,9.9677 m -1.3058,2.631 c 0.2428,-0.9506 0.6841,-1.8501 1.3058,-2.631 m -1.3058,2.631 C 49.0361,53.8962 49.5131,52.95 50.1901,52.14 m -0.1044,0.1284 c 0.0343,-0.0431 0.069,-0.0861 0.1044,-0.1284 m -20.3807,0 c -0.5125,-0.6133 -1.1396,-1.1485 -1.872,-1.5713 -3.348,-1.933 -7.6291,-0.7859 -9.5621,2.5622 l -1,1.732 c -1.933,3.3481 -0.7859,7.6292 2.5621,9.5622 3.3481,1.933 7.6292,0.7859 9.5622,-2.5622 l 1,-1.732 C 32.0098,57.5152 31.64,54.33 29.8094,52.14 Z m 20.3807,0 c 0.5126,-0.6133 1.1396,-1.1485 1.872,-1.5713 3.3481,-1.933 7.6292,-0.7859 9.5622,2.5622 l 1,1.732 c 1.933,3.3481 0.7859,7.6292 -2.5622,9.5622 -3.348,1.933 -7.6292,0.7859 -9.5621,-2.5622 l -1,-1.732 C 47.9898,57.5152 48.3596,54.33 50.1901,52.14 Z m -9.3234,-7.9653 c 0.2761,-0.4783 0.1122,-1.0898 -0.3661,-1.366 -0.4783,-0.2761 -1.0899,-0.1123 -1.366,0.366 -0.2761,0.4783 -0.1123,1.0899 0.366,1.3661 0.4783,0.2761 1.0899,0.1122 1.3661,-0.3661 z m -1.7338,0 c -0.2761,-0.4782 -0.1123,-1.0898 0.366,-1.366 0.4783,-0.2761 1.0899,-0.1122 1.3661,0.366 0.2761,0.4783 0.1122,1.0899 -0.3661,1.3661 -0.4783,0.2761 -1.0898,0.1122 -1.366,-0.3661 z"
     stroke="#C2CCDE"
     stroke-linecap="round"
     stroke-linejoin="round"
     id="path5238"
     style="stroke:#7f7f7f;stroke-opacity:1" />
</svg>
