<?xml version="1.0" encoding="UTF-8" standalone="no"?>
<svg
   width="80"
   height="80"
   viewBox="0 0 80 80"
   fill="none"
   version="1.1"
   id="svg10"
   xmlns="http://www.w3.org/2000/svg"
   xmlns:svg="http://www.w3.org/2000/svg">
  <defs
     id="defs14" />
  <path
     d="m 40,12 3.135,0.1761 3.0956,0.5259 3.0172,0.8693 2.9009,1.2016 2.7482,1.5188 2.5608,1.817 2.3413,2.0923 2.0923,2.3413 1.817,2.5608 1.5188,2.7482 1.2016,2.9009 0.8693,3.0172 0.5259,3.0956 L 68,40 l -0.1761,3.135 -0.5259,3.0956 -0.8693,3.0172 -1.2016,2.9009 -1.5188,2.7482 -1.817,2.5608 -2.0923,2.3413 -2.3413,2.0923 -2.5608,1.817 -2.7482,1.5188 -2.9009,1.2016 L 46.2306,67.298 43.135,67.8239 40,68 36.865,67.8239 33.7694,67.298 30.7522,66.4287 27.8513,65.2271 25.1031,63.7083 22.5423,61.8913 20.201,59.799 18.1087,57.4577 16.2917,54.8969 14.7729,52.1487 13.5713,49.2478 12.702,46.2306 12.1761,43.135 12,40 l 0.1761,-3.135 0.5259,-3.0956 0.8693,-3.0172 1.2016,-2.9009 1.5188,-2.7482 1.817,-2.5608 2.0923,-2.3413 2.3413,-2.0923 2.5608,-1.817 2.7482,-1.5188 2.9009,-1.2016 3.0172,-0.8693 3.0956,-0.5259 z"
     fill="#eb5757"
     id="path2" />
  <path
     d="m 40,12 0.1121,-1.9969 c -0.0747,-0.00415 -0.1495,-0.00415 -0.2242,0 z m 3.135,0.1761 0.335,-1.9718 c -0.0737,-0.0125 -0.1482,-0.0209 -0.2229,-0.0251 z m 3.0956,0.5259 0.5537,-1.9218 c -0.0719,-0.0207 -0.1449,-0.0374 -0.2187,-0.0499 z m 3.0172,0.8693 0.7654,-1.8478 c -0.0691,-0.0286 -0.1398,-0.0534 -0.2117,-0.0741 z m 2.9009,1.2016 0.9675,-1.7505 c -0.0655,-0.0362 -0.133,-0.0687 -0.2021,-0.0973 z m 2.7482,1.5188 1.1573,-1.6311 c -0.061,-0.0433 -0.1244,-0.0831 -0.1899,-0.1193 z m 2.5608,1.817 1.3327,-1.4913 c -0.0558,-0.0498 -0.1143,-0.0965 -0.1753,-0.1398 z m 2.3413,2.0923 1.4913,-1.3327 c -0.0499,-0.0558 -0.1028,-0.1087 -0.1586,-0.1586 z m 2.0923,2.3413 1.6311,-1.1574 c -0.0433,-0.061 -0.09,-0.1195 -0.1398,-0.1753 z m 1.817,2.5608 1.7504,-0.9674 c -0.0362,-0.0655 -0.076,-0.1289 -0.1193,-0.1899 z m 1.5188,2.7482 1.8478,-0.7654 c -0.0286,-0.0691 -0.0611,-0.1366 -0.0973,-0.2021 z m 1.2016,2.9009 1.9219,-0.5537 c -0.0207,-0.0719 -0.0455,-0.1426 -0.0741,-0.2117 z m 0.8693,3.0172 1.9717,-0.335 c -0.0125,-0.0738 -0.0292,-0.1468 -0.0499,-0.2187 z m 0.5259,3.0956 1.9969,-0.1121 C 69.8166,36.6782 69.8082,36.6037 69.7957,36.53 Z M 68,40 l 1.9969,0.1121 c 0.0041,-0.0747 0.0041,-0.1495 0,-0.2242 z m -0.1761,3.135 1.9718,0.335 c 0.0125,-0.0737 0.0209,-0.1482 0.0251,-0.2229 z m -0.5259,3.0956 1.9218,0.5537 c 0.0207,-0.0719 0.0374,-0.1449 0.0499,-0.2187 z m -0.8693,3.0172 1.8478,0.7654 c 0.0286,-0.0691 0.0534,-0.1398 0.0741,-0.2117 z m -1.2016,2.9009 1.7505,0.9675 c 0.0362,-0.0655 0.0687,-0.133 0.0973,-0.2021 z m -1.5188,2.7482 1.6311,1.1573 c 0.0433,-0.061 0.0831,-0.1244 0.1193,-0.1899 z m -1.817,2.5608 1.4913,1.3327 c 0.0498,-0.0558 0.0965,-0.1143 0.1398,-0.1753 z m -2.0923,2.3413 1.3327,1.4913 c 0.0558,-0.0499 0.1087,-0.1028 0.1586,-0.1586 z m -2.3413,2.0923 1.1574,1.6311 c 0.061,-0.0433 0.1195,-0.09 0.1753,-0.1398 z m -2.5608,1.817 0.9674,1.7504 c 0.0655,-0.0362 0.1289,-0.076 0.1899,-0.1193 z m -2.7482,1.5188 0.7654,1.8478 c 0.0691,-0.0286 0.1366,-0.0611 0.2021,-0.0973 z m -2.9009,1.2016 0.5537,1.9219 c 0.0719,-0.0207 0.1426,-0.0455 0.2117,-0.0741 z m -3.0172,0.8693 0.335,1.9717 c 0.0738,-0.0125 0.1468,-0.0292 0.2187,-0.0499 z m -3.0956,0.5259 0.1121,1.9969 c 0.0747,-0.0042 0.1492,-0.0126 0.2229,-0.0251 z M 40,68 39.8879,69.9969 c 0.0747,0.0041 0.1495,0.0041 0.2242,0 z m -3.135,-0.1761 -0.335,1.9718 c 0.0737,0.0125 0.1482,0.0209 0.2229,0.0251 z m -3.0956,-0.5259 -0.5537,1.9218 c 0.0719,0.0207 0.1449,0.0374 0.2187,0.0499 z m -3.0172,-0.8693 -0.7654,1.8478 c 0.0691,0.0286 0.1398,0.0534 0.2117,0.0741 z m -2.9009,-1.2016 -0.9675,1.7505 c 0.0655,0.0362 0.133,0.0687 0.2021,0.0973 z m -2.7482,-1.5188 -1.1573,1.6311 c 0.061,0.0433 0.1244,0.0831 0.1899,0.1193 z m -2.5608,-1.817 -1.3327,1.4913 c 0.0558,0.0498 0.1143,0.0965 0.1753,0.1398 z M 20.201,59.799 18.7097,61.1317 c 0.0499,0.0558 0.1028,0.1087 0.1586,0.1586 z m -2.0923,-2.3413 -1.6311,1.1574 c 0.0433,0.061 0.09,0.1195 0.1398,0.1753 z m -1.817,-2.5608 -1.7504,0.9674 c 0.0362,0.0655 0.076,0.1289 0.1193,0.1899 z m -1.5188,-2.7482 -1.8478,0.7654 c 0.0286,0.0691 0.0611,0.1366 0.0973,0.2021 z m -1.2016,-2.9009 -1.9219,0.5537 c 0.0207,0.0719 0.0455,0.1426 0.0741,0.2117 z m -0.8693,-3.0172 -1.9717,0.335 c 0.0125,0.0738 0.0292,0.1468 0.0499,0.2187 z m -0.5259,-3.0956 -1.9969,0.1121 c 0.0042,0.0747 0.0126,0.1492 0.0251,0.2229 z M 12,40 10.0031,39.8879 c -0.00415,0.0747 -0.00415,0.1495 0,0.2242 z m 0.1761,-3.135 -1.9718,-0.335 c -0.0125,0.0737 -0.0209,0.1482 -0.0251,0.2229 z m 0.5259,-3.0956 -1.9218,-0.5537 c -0.0207,0.0719 -0.0374,0.1449 -0.0499,0.2187 z m 0.8693,-3.0172 -1.8478,-0.7654 c -0.0286,0.0691 -0.0534,0.1398 -0.0741,0.2117 z m 1.2016,-2.9009 -1.7505,-0.9675 c -0.0362,0.0655 -0.0687,0.133 -0.0973,0.2021 z m 1.5188,-2.7482 -1.6311,-1.1573 c -0.0433,0.061 -0.0831,0.1244 -0.1193,0.1899 z m 1.817,-2.5608 -1.4913,-1.3327 c -0.0498,0.0558 -0.0965,0.1143 -0.1398,0.1753 z M 20.201,20.201 18.8683,18.7097 c -0.0558,0.0499 -0.1087,0.1028 -0.1586,0.1586 z m 2.3413,-2.0923 -1.1574,-1.6311 c -0.061,0.0433 -0.1195,0.09 -0.1753,0.1398 z m 2.5608,-1.817 -0.9674,-1.7504 c -0.0655,0.0362 -0.1289,0.076 -0.1899,0.1193 z m 2.7482,-1.5188 -0.7654,-1.8478 c -0.0691,0.0286 -0.1366,0.0611 -0.2021,0.0973 z m 2.9009,-1.2016 -0.5537,-1.9219 c -0.0719,0.0207 -0.1426,0.0455 -0.2117,0.0741 z m 3.0172,-0.8693 -0.335,-1.9717 c -0.0738,0.0125 -0.1468,0.0292 -0.2187,0.0499 z m 3.0956,-0.5259 -0.1121,-1.9969 c -0.0747,0.0042 -0.1492,0.0126 -0.2229,0.0251 z m 3.0229,1.8208 3.135,0.176 0.2242,-3.9937 -3.135,-0.1761 z m 2.9121,0.1509 3.0956,0.526 0.67,-3.9435 -3.0956,-0.526 z m 2.8769,0.4761 3.0172,0.8692 1.1074,-3.8437 -3.0172,-0.8692 z m 2.8055,0.7951 2.901,1.2016 1.5307,-3.6955 -2.9009,-1.2016 z m 2.6989,1.1043 2.7482,1.5189 1.9348,-3.5009 -2.7481,-1.5189 z m 2.5583,1.3995 2.5608,1.817 2.3147,-3.2622 -2.5609,-1.817 z m 2.3854,1.6772 2.3413,2.0923 2.6654,-2.9826 -2.3413,-2.0923 z m 2.1827,1.9337 2.0923,2.3413 2.9826,-2.6654 -2.0923,-2.3413 z m 1.9525,2.1659 1.817,2.5608 3.2622,-2.3146 -1.817,-2.5609 z m 1.6976,2.3709 1.5189,2.7482 3.5009,-1.9349 -1.5189,-2.7481 z m 1.4216,2.5461 1.2016,2.901 3.6955,-1.5308 -1.2016,-2.9009 z m 1.1275,2.6893 0.8692,3.0172 3.8437,-1.1074 -0.8692,-3.0172 z m 0.8193,2.7985 0.526,3.0956 3.9435,-0.67 -0.526,-3.0956 z m 0.5009,2.8727 0.176,3.135 3.9938,-0.2242 -0.1761,-3.135 z m 0.176,2.9108 -0.176,3.135 3.9937,0.2242 0.1761,-3.135 z m -0.1509,2.9121 -0.526,3.0956 3.9435,0.67 0.526,-3.0956 z m -0.4761,2.8769 -0.8692,3.0172 3.8437,1.1074 0.8692,-3.0172 z m -0.7951,2.8055 -1.2016,2.901 3.6955,1.5307 1.2016,-2.9009 z m -1.1043,2.6989 -1.5189,2.7482 3.5009,1.9348 1.5189,-2.7481 z m -1.3995,2.5583 -1.817,2.5608 3.2622,2.3147 1.817,-2.5609 z M 60.4,56.125 l -2.0923,2.3413 2.9826,2.6654 2.0923,-2.3413 z m -1.9337,2.1827 -2.3413,2.0923 2.6654,2.9826 2.3413,-2.0923 z m -2.1659,1.9525 -2.5608,1.817 2.3146,3.2622 2.5609,-1.817 z m -2.3709,1.6976 -2.7482,1.5189 1.9349,3.5009 2.7481,-1.5189 z m -2.5461,1.4216 -2.901,1.2016 1.5308,3.6955 2.9009,-1.2016 z m -2.6893,1.1275 -3.0172,0.8692 1.1074,3.8437 3.0172,-0.8692 z m -2.7985,0.8193 -3.0956,0.526 0.67,3.9435 3.0956,-0.526 z m -2.8727,0.5009 -3.135,0.176 0.2242,3.9938 3.135,-0.1761 z m -2.9108,0.176 -3.135,-0.176 -0.2242,3.9937 3.135,0.1761 z M 37.2,65.8522 l -3.0956,-0.526 -0.67,3.9435 3.0956,0.526 z m -2.8769,-0.4761 -3.0172,-0.8692 -1.1074,3.8437 3.0172,0.8692 z m -2.8055,-0.7951 -2.901,-1.2016 -1.5307,3.6955 2.9009,1.2016 z m -2.6989,-1.1043 -2.7482,-1.5189 -1.9348,3.5009 2.7481,1.5189 z m -2.5583,-1.3995 -2.5608,-1.817 -2.3147,3.2622 2.5609,1.817 z M 23.875,60.4 l -2.3413,-2.0923 -2.6654,2.9826 2.3413,2.0923 z M 21.6923,58.4663 19.6,56.125 l -2.9826,2.6654 2.0923,2.3413 z m -1.9525,-2.1659 -1.817,-2.5608 -3.2622,2.3146 1.817,2.5609 z m -1.6976,-2.3709 -1.5189,-2.7482 -3.5009,1.9349 1.5189,2.7481 z m -1.4216,-2.5461 -1.2016,-2.901 -3.6955,1.5308 1.2016,2.9009 z m -1.1275,-2.6893 -0.8692,-3.0172 -3.8437,1.1074 0.8692,3.0172 z m -0.8193,-2.7985 -0.526,-3.0956 -3.9435,0.67 0.526,3.0956 z m -0.5009,-2.8727 -0.176,-3.135 -3.9938,0.2242 0.1761,3.135 z m -0.176,-2.9108 0.176,-3.135 -3.9937,-0.2242 -0.1761,3.135 z m 0.1509,-2.9121 0.526,-3.0956 -3.9435,-0.67 -0.526,3.0956 z m 0.4761,-2.8769 0.8692,-3.0172 -3.8437,-1.1074 -0.8692,3.0172 z m 0.7951,-2.8055 1.2016,-2.901 -3.6955,-1.5307 -1.2016,2.9009 z m 1.1043,-2.6989 1.5189,-2.7482 -3.5009,-1.9348 -1.5189,2.7481 z m 1.3995,-2.5583 1.817,-2.5608 -3.2622,-2.3147 -1.817,2.5609 z M 19.6,23.875 21.6923,21.5337 18.7097,18.8683 16.6174,21.2096 Z M 21.5337,21.6923 23.875,19.6 21.2096,16.6174 18.8683,18.7097 Z m 2.1659,-1.9525 2.5608,-1.817 -2.3146,-3.2622 -2.5609,1.817 z m 2.3709,-1.6976 2.7482,-1.5189 -1.9349,-3.5009 -2.7481,1.5189 z m 2.5461,-1.4216 2.901,-1.2016 -1.5308,-3.6955 -2.9009,1.2016 z m 2.6893,-1.1275 3.0172,-0.8692 -1.1074,-3.8437 -3.0172,0.8692 z m 2.7985,-0.8193 3.0956,-0.526 -0.67,-3.9435 -3.0956,0.526 z m 2.8727,-0.5009 3.135,-0.176 -0.2242,-3.9938 -3.135,0.1761 z"
     fill="#F2C94C"
     id="path4"
     style="fill:#e0e0e0;fill-opacity:1" />
  <path
     d="m 24.4437,24.44365 14.1421,14.1422 2.8284,2.8284 14.1422,14.1421"
     stroke="#F2994A"
     stroke-width="4"
     stroke-linecap="round"
     stroke-linejoin="round"
     id="path1320"
     style="stroke:#e0e0e0;stroke-opacity:1" />
  <path
     d="m 55.5563,24.44365 -14.1421,14.1422 -2.8284,2.8284 -14.1422,14.1421"
     stroke="#F2C94C"
     stroke-width="4"
     stroke-linecap="round"
     stroke-linejoin="round"
     id="path1322"
     style="stroke:#eeeeee;stroke-opacity:1" />
</svg>
