<svg width="80" height="80" viewBox="0 0 80 80" fill="none" xmlns="http://www.w3.org/2000/svg">
  <path fill-rule="evenodd" clip-rule="evenodd" d="M63.4533 67.7489L50.7249 55.017C49.5542 53.846 49.5543 51.9477 50.7251 50.7769C51.8962 49.6058 53.7949 49.606 54.9658 50.7772L67.6943 63.5091C68.865 64.6801 68.8648 66.5783 67.694 67.7492C66.5229 68.9202 64.6242 68.9201 63.4533 67.7489Z" fill="#F2C94C" />
  <path d="M50.7249 55.017L52.1393 53.603H52.1393L50.7249 55.017ZM63.4533 67.7489L64.8677 66.3348L63.4533 67.7489ZM50.7251 50.7769L52.1393 52.1911L52.1393 52.1911L50.7251 50.7769ZM54.9658 50.7772L53.5514 52.1912L53.5514 52.1912L54.9658 50.7772ZM67.6943 63.5091L69.1087 62.095L67.6943 63.5091ZM67.694 67.7492L66.2798 66.3349H66.2798L67.694 67.7492ZM49.3104 56.431L62.0389 69.1629L64.8677 66.3348L52.1393 53.603L49.3104 56.431ZM49.3109 49.3627C47.3591 51.3145 47.3589 54.4789 49.3104 56.431L52.1393 53.603C51.7494 53.213 51.7495 52.581 52.1393 52.1911L49.3109 49.3627ZM56.3802 49.3632C54.4283 47.4107 51.2631 47.4105 49.3109 49.3627L52.1393 52.1911C52.5293 51.8012 53.1615 51.8012 53.5514 52.1912L56.3802 49.3632ZM69.1087 62.095L56.3802 49.3632L53.5514 52.1912L66.2799 64.9231L69.1087 62.095ZM69.1082 69.1634C71.06 67.2116 71.0602 64.0471 69.1087 62.095L66.2799 64.9231C66.6697 65.313 66.6696 65.9451 66.2798 66.3349L69.1082 69.1634ZM62.0389 69.1629C63.9909 71.1153 67.156 71.1156 69.1082 69.1634L66.2798 66.3349C65.8898 66.7249 65.2576 66.7248 64.8677 66.3348L62.0389 69.1629Z" fill="#F2C94C" />
  <path d="M15.5965 29.0688C17.3583 22.4939 22.4939 17.3584 29.0687 15.5966C35.6436 13.8349 42.6589 15.7147 47.4721 20.5278C52.2852 25.341 54.165 32.3563 52.4033 38.9312C50.6415 45.5061 45.506 50.6416 38.9311 52.4034C32.3562 54.1651 25.3409 52.2853 20.5277 47.4722C15.7146 42.659 13.8348 35.6437 15.5965 29.0688Z" fill="#2F80ED" />
  <path d="M20.7417 33.9973C20.7416 35.1019 21.637 35.9973 22.7416 35.9974C23.8462 35.9975 24.7416 35.1021 24.7417 33.9975L20.7417 33.9973ZM28.3698 24.2498L29.3698 25.9818L28.3698 24.2498ZM33.9968 24.7417C35.1014 24.7416 35.9967 23.846 35.9966 22.7414C35.9964 21.6369 35.1009 20.7416 33.9963 20.7417L33.9968 24.7417ZM24.7417 33.9975C24.7419 30.6907 26.5061 27.6352 29.3698 25.9818L27.3698 22.5177C23.2685 24.8856 20.7419 29.2615 20.7417 33.9973L24.7417 33.9975ZM33.9963 20.7417C31.7086 20.742 29.42 21.334 27.3698 22.5177L29.3698 25.9818C30.8015 25.1552 32.3987 24.7419 33.9968 24.7417L33.9963 20.7417Z" fill="#F2F2F2" />
</svg>