<?xml version="1.0" encoding="UTF-8" standalone="no"?>
<svg
   width="80"
   height="80"
   viewBox="0 0 80 80"
   fill="none"
   version="1.1"
   id="svg2091"
   xmlns="http://www.w3.org/2000/svg"
   xmlns:svg="http://www.w3.org/2000/svg">
  <defs
     id="defs2095" />
  <path
     d="m 40,12 3.135,0.1761 3.0956,0.5259 3.0172,0.8693 2.9009,1.2016 2.7482,1.5188 2.5608,1.817 2.3413,2.0923 2.0923,2.3413 1.817,2.5608 1.5188,2.7482 1.2016,2.9009 0.8693,3.0172 0.5259,3.0956 L 68,40 l -0.1761,3.135 -0.5259,3.0956 -0.8693,3.0172 -1.2016,2.9009 -1.5188,2.7482 -1.817,2.5608 -2.0923,2.3413 -2.3413,2.0923 -2.5608,1.817 -2.7482,1.5188 -2.9009,1.2016 L 46.2306,67.298 43.135,67.8239 40,68 36.865,67.8239 33.7694,67.298 30.7522,66.4287 27.8513,65.2271 25.1031,63.7083 22.5423,61.8913 20.201,59.799 18.1087,57.4577 16.2917,54.8969 14.7729,52.1487 13.5713,49.2478 12.702,46.2306 12.1761,43.135 12,40 l 0.1761,-3.135 0.5259,-3.0956 0.8693,-3.0172 1.2016,-2.9009 1.5188,-2.7482 1.817,-2.5608 2.0923,-2.3413 2.3413,-2.0923 2.5608,-1.817 2.7482,-1.5188 2.9009,-1.2016 3.0172,-0.8693 3.0956,-0.5259 z"
     stroke="#3d3321"
     stroke-linecap="round"
     stroke-linejoin="round"
     id="path2085"
     style="stroke:#ffffff;stroke-width:4;stroke-dasharray:none;stroke-opacity:1" />
  <path
     d="m 37.6,27.8667 c 0,-1.1046 -0.8954,-2 -2,-2 H 30 c -1.1046,0 -2,0.8954 -2,2 v 24.2666 c 0,1.1046 0.8954,2 2,2 h 5.6 c 1.1046,0 2,-0.8954 2,-2 z"
     stroke="#3d3321"
     stroke-linecap="round"
     stroke-linejoin="round"
     id="path2087"
     style="stroke:#ffffff;stroke-width:4;stroke-dasharray:none;stroke-opacity:1" />
  <path
     d="m 51.9999,27.8667 c 0,-1.1046 -0.8954,-2 -2,-2 h -5.6 c -1.1046,0 -2,0.8954 -2,2 v 24.2666 c 0,1.1046 0.8954,2 2,2 h 5.6 c 1.1046,0 2,-0.8954 2,-2 z"
     stroke="#3d3321"
     stroke-linecap="round"
     stroke-linejoin="round"
     id="path2089"
     style="stroke:#ffffff;stroke-width:4;stroke-dasharray:none;stroke-opacity:1" />
</svg>
