<?xml version="1.0" encoding="UTF-8" standalone="no"?>
<svg
   width="80"
   height="80"
   viewBox="0 0 80 80"
   fill="none"
   version="1.1"
   id="svg6"
   xml:space="preserve"
   xmlns="http://www.w3.org/2000/svg"
   xmlns:svg="http://www.w3.org/2000/svg"><defs
     id="defs10" /><path
     d="m 34,66.9999 c -2.2091,0 -4,-1.7908 -4,-4 v -25.998 -8.0016 c 0,-2.2094 1.7913,-4.0004 4.0007,-4 L 42.1905,25.0018 57.9996,25 C 60.2089,24.9998 62,26.7907 62,29 v 33.9999 c 0,2.2092 -1.7909,4 -4,4 z"
     stroke="#C2CCDE"
     stroke-linecap="round"
     stroke-linejoin="round"
     id="path2"
     style="stroke:#000000;stroke-width:4;stroke-opacity:1;stroke-width:4" /><path
     d="m 30,54.9999 h -8 c -2.2091,0 -4,-1.7908 -4,-4 V 17 c 0,-2.2093 1.7911,-4.0002 4.0004,-4 l 23.9989,3e-4 c 2.2094,-4e-4 4.0007,1.7906 4.0007,4 v 8.0006"
     stroke="#C2CCDE"
     stroke-linecap="round"
     stroke-linejoin="round"
     id="path4"
     style="stroke:#000000;stroke-width:4;stroke-opacity:1;stroke-width:4" /><path
     d="m 39.318623,50.102999 v 4.705882 c 0,3.638588 2.949647,6.588235 6.588236,6.588235 3.638588,0 6.588235,-2.949647 6.588235,-6.588235 v -4.705882"
     stroke="#C2CCDE"
     stroke-linecap="round"
     stroke-linejoin="round"
     id="path2932"
     style="fill:none;stroke:#000000;stroke-width:4;stroke-dasharray:none;stroke-opacity:1;stroke-width:4" /><path
     d="m 39.318623,42.573587 v -4.705883 c 0,-3.638588 2.949647,-6.588235 6.588236,-6.588235 3.638588,0 6.588235,2.949647 6.588235,6.588235 v 4.705883"
     stroke="#C2CCDE"
     stroke-linecap="round"
     stroke-linejoin="round"
     id="path2934"
     style="fill:none;stroke:#000000;stroke-width:4;stroke-dasharray:none;stroke-opacity:1;stroke-width:4" /><path
     d="M 45.906859,52.45594 V 40.220645"
     stroke="#C2CCDE"
     stroke-linecap="round"
     stroke-linejoin="round"
     id="path2936"
     style="fill:none;stroke:#000000;stroke-width:4;stroke-dasharray:none;stroke-opacity:1;stroke-width:4" /></svg>
