<?xml version="1.0" encoding="UTF-8" standalone="no"?>
<svg
   width="80"
   height="80"
   viewBox="0 0 80 80"
   fill="none"
   version="1.1"
   id="svg3177"
   xmlns="http://www.w3.org/2000/svg"
   xmlns:svg="http://www.w3.org/2000/svg">
  <defs
     id="defs3181" />
  <path
     d="m 45.1699,15.1762 c -0.75,-0.7499 -1.7672,-1.1712 -2.8277,-1.1713 L 24.0004,14.0029 C 21.7911,14.0026 20,15.7936 20,18.0029 v 43.9995 c 0,2.2092 1.7909,4 4,4 h 32 c 2.2091,0 4,-1.7908 4,-4 V 31.6607 c 0,-1.061 -0.4215,-2.0785 -1.1718,-2.8287 L 58.6276,28.6314 C 59.0867,29.1579 58.7174,30.0009 58,30.0009 H 48 c -2.2091,0 -4,-1.7908 -4,-4 v -10 c 0,-0.7101 0.8261,-1.0791 1.3534,-0.6412 z"
     fill="#C2CCDE"
     fill-opacity="0.25"
     id="path3171"
     style="fill:#c8c8c8;fill-opacity:0.25" />
  <path
     d="M 58.5858,28.586 45.4142,15.4144 C 44.8923,14.8926 44,15.2629 44,16.0009 v 10 c 0,2.2092 1.7909,4 4,4 h 10 c 0.738,0 1.1077,-0.893 0.5858,-1.4149 z"
     fill="#c2ccde"
     fill-opacity="0.25"
     id="path3173" />
  <path
     d="m 58,30.0009 c 0.7174,0 1.0867,-0.843 0.6276,-1.3695 l 0.2006,0.2006 C 59.5785,29.5822 60,30.5997 60,31.6607 v 30.3417 c 0,2.2092 -1.7909,4 -4,4 H 24 c -2.2091,0 -4,-1.7908 -4,-4 V 18.0029 c 0,-2.2093 1.7911,-4.0003 4.0004,-4 l 18.3418,0.002 c 1.0605,1e-4 2.0777,0.4214 2.8277,1.1713 l 0.1835,0.1835 C 44.8261,14.9218 44,15.2908 44,16.0009 m 14,14 H 48 c -2.2091,0 -4,-1.7908 -4,-4 v -10 m 14,14 c 0.738,0 1.1077,-0.893 0.5858,-1.4149 L 45.4142,15.4144 C 44.8923,14.8926 44,15.2629 44,16.0009"
     stroke="#C2CCDE"
     stroke-linecap="round"
     stroke-linejoin="round"
     id="path3175"
     style="stroke:#7f7f7f;stroke-opacity:1" />
</svg>
