<?xml version="1.0" encoding="UTF-8" standalone="no"?>
<svg
   width="80"
   height="80"
   viewBox="0 0 80 80"
   fill="none"
   version="1.1"
   id="svg6"
   xmlns="http://www.w3.org/2000/svg"
   xmlns:svg="http://www.w3.org/2000/svg">
  <defs
     id="defs10" />
  <path
     d="m 40,12 3.135,0.1761 3.0956,0.5259 3.0172,0.8693 2.9009,1.2016 2.7482,1.5188 2.5608,1.817 2.3413,2.0923 2.0923,2.3413 1.817,2.5608 1.5188,2.7482 1.2016,2.9009 0.8693,3.0172 0.5259,3.0956 L 68,40 l -0.1761,3.135 -0.5259,3.0956 -0.8693,3.0172 -1.2016,2.9009 -1.5188,2.7482 -1.817,2.5608 -2.0923,2.3413 -2.3413,2.0923 -2.5608,1.817 -2.7482,1.5188 -2.9009,1.2016 L 46.2306,67.298 43.135,67.8239 40,68 36.865,67.8239 33.7694,67.298 30.7522,66.4287 27.8513,65.2271 25.1031,63.7083 22.5423,61.8913 20.201,59.799 18.1087,57.4577 16.2917,54.8969 14.7729,52.1487 13.5713,49.2478 12.702,46.2306 12.1761,43.135 12,40 l 0.1761,-3.135 0.5259,-3.0956 0.8693,-3.0172 1.2016,-2.9009 1.5188,-2.7482 1.817,-2.5608 2.0923,-2.3413 2.3413,-2.0923 2.5608,-1.817 2.7482,-1.5188 2.9009,-1.2016 3.0172,-0.8693 3.0956,-0.5259 z"
     fill="#C2CCDE"
     fill-opacity="0.25"
     id="path2"
     style="fill:#c8c8c8;fill-opacity:0.25" />
  <path
     d="m 40,46.4 v -0.3803 c 0,-2.3336 1.2297,-4.4945 3.2359,-5.6865 L 44.9751,39.3 C 47.4705,37.8175 49,35.1297 49,32.2271 49,27.6834 45.3166,24 40.7729,24 H 40 c -4.9706,0 -9,4.0294 -9,9 v 0.5082 m 9,20.0917 v 1.6 M 40,12 l 3.135,0.1761 3.0956,0.5259 3.0172,0.8693 2.9009,1.2016 2.7482,1.5188 2.5608,1.817 2.3413,2.0923 2.0923,2.3413 1.817,2.5608 1.5188,2.7482 1.2016,2.9009 0.8693,3.0172 0.5259,3.0956 L 68,40 l -0.1761,3.135 -0.5259,3.0956 -0.8693,3.0172 -1.2016,2.9009 -1.5188,2.7482 -1.817,2.5608 -2.0923,2.3413 -2.3413,2.0923 -2.5608,1.817 -2.7482,1.5188 -2.9009,1.2016 L 46.2306,67.298 43.135,67.8239 40,68 36.865,67.8239 33.7694,67.298 30.7522,66.4287 27.8513,65.2271 25.1031,63.7083 22.5423,61.8913 20.201,59.799 18.1087,57.4577 16.2917,54.8969 14.7729,52.1487 13.5713,49.2478 12.702,46.2306 12.1761,43.135 12,40 l 0.1761,-3.135 0.5259,-3.0956 0.8693,-3.0172 1.2016,-2.9009 1.5188,-2.7482 1.817,-2.5608 2.0923,-2.3413 2.3413,-2.0923 2.5608,-1.817 2.7482,-1.5188 2.9009,-1.2016 3.0172,-0.8693 3.0956,-0.5259 z"
     stroke="#C2CCDE"
     stroke-linecap="round"
     stroke-linejoin="round"
     id="path4"
     style="stroke:#7f7f7f;stroke-opacity:1" />
</svg>
