<?xml version="1.0" encoding="UTF-8" standalone="no"?>
<svg
   width="80"
   height="80"
   viewBox="0 0 80 80"
   fill="none"
   version="1.1"
   id="svg8"
   xmlns="http://www.w3.org/2000/svg"
   xmlns:svg="http://www.w3.org/2000/svg">
  <defs
     id="defs12" />
  <path
     d="M 30,55.0008 V 37.0027 29.0011 c 0,-2.2094 1.7913,-4.0004 4.0007,-4 l 8.1898,0.0015 7.8095,-9e-4 v -8.0006 c 0,-2.2094 -1.7913,-4.0004 -4.0007,-4 l -23.9989,-2e-4 C 19.7911,13.0006 18,14.7915 18,17.0009 v 33.9999 c 0,2.2091 1.7909,4 4,4 z"
     fill="#C2CCDE"
     fill-opacity="0.25"
     id="path2"
     style="fill:#c8c8c8;fill-opacity:0.25;stroke:#7f7f7f;stroke-opacity:1" />
  <path
     d="m 34,67.0007 c -2.2091,0 -4,-1.7909 -4,-4 v -25.998 -8.0016 c 0,-2.2094 1.7913,-4.0004 4.0007,-4 l 8.1898,0.0015 15.8091,-0.0018 c 2.2093,-3e-4 4.0004,1.7907 4.0004,4 v 33.9999 c 0,2.2092 -1.7909,4 -4,4 z"
     fill="#C2CCDE"
     fill-opacity="0.25"
     id="path4"
     style="fill:#c8c8c8;fill-opacity:0.25;stroke:#7f7f7f;stroke-opacity:1" />
  <path
     d="m 30,37.0027 v 17.9981 h -8 c -2.2091,0 -4,-1.7909 -4,-4 V 17.0009 c 0,-2.2094 1.7911,-4.0003 4.0004,-4 l 23.9989,2e-4 c 2.2094,-4e-4 4.0007,1.7906 4.0007,4 v 8.0006 l -7.8095,9e-4 M 30,37.0027 v -8.0016 c 0,-2.2094 1.7913,-4.0004 4.0007,-4 l 8.1898,0.0015 M 30,37.0027 v 25.998 c 0,2.2091 1.7909,4 4,4 h 24 c 2.2091,0 4,-1.7908 4,-4 V 29.0008 c 0,-2.2093 -1.7911,-4.0003 -4.0004,-4 l -15.8091,0.0018"
     stroke="#C2CCDE"
     stroke-linecap="round"
     stroke-linejoin="round"
     id="path6"
     style="fill:#c8c8c8;fill-opacity:0.25;stroke:#7f7f7f;stroke-opacity:1" />
</svg>
