<?xml version="1.0" encoding="UTF-8" standalone="no"?>
<svg
   width="80"
   height="80"
   viewBox="0 0 80 80"
   fill="none"
   version="1.1"
   id="svg10"
   xmlns="http://www.w3.org/2000/svg"
   xmlns:svg="http://www.w3.org/2000/svg">
  <defs
     id="defs14" />
  <path
     id="path2"
     style="fill:#c8c8c8;fill-opacity:0.25"
     d="m 13,12 c 1.280599,0 2.508563,0.508563 3.414062,1.414062 L 17,14 c 1.280599,1.280599 2,3.017127 2,4.828125 v 38.929687 c 0,2.716498 1.079102,5.32129 3,7.242188 1.891798,1.891798 4.447143,2.9679 7.119141,3 2.517997,-0.0312 4.926186,-1.045327 6.708984,-2.828125 L 36,65 c 1.920898,-1.920898 3,-4.52569 3,-7.242188 V 54 c 0,-0.552299 0.447701,-1 1,-1 h 23 v -7.773438 h 6.800781 c 0.767799,10e-7 1.25009,-0.829394 0.869141,-1.496093 L 63,30.308594 V 22.242188 C 63,19.52569 61.920898,16.920898 60,15 58.079102,13.079102 55.47431,12 52.757812,12 Z" />
  <path
     d="M 35.8284,65.1716 36,65 c 1.9209,-1.9209 3,-4.5261 3,-7.2426 V 54 c 0,-0.5523 0.4477,-1 1,-1 h 34 c 0.5523,0 1,0.4477 1,1 v 3.7574 c 0,2.7165 -1.0791,5.3217 -3,7.2426 -1.9209,1.9209 -4.5261,3 -7.2426,3 H 29 c 2.5612,0 5.0174,-1.0174 6.8284,-2.8284 z"
     fill="#C2CCDE"
     fill-opacity="0.25"
     id="path4"
     style="fill:#c8c8c8;fill-opacity:0.25" />
  <path
     d="M 12.1716,12 H 11.8284 C 10.0174,12 8.28058,12.7194 7,14 5.71942,15.2806 5,17.0174 5,18.8284 V 29 c 0,0.5523 0.44772,1 1,1 h 12 c 0.5523,0 1,-0.4477 1,-1 V 18.8284 C 19,17.0174 18.2806,15.2806 17,14 c -4e-4,-4e-4 -7e-4,-7e-4 -0.0011,-0.0011 C 15.7185,12.719 13.9821,12 12.1716,12 Z"
     fill="#C2CCDE"
     fill-opacity="0.25"
     id="path6"
     style="fill:#c8c8c8;fill-opacity:0.25" />
  <path
     id="path8"
     style="fill:none;stroke:#7f7f7f;stroke-opacity:1"
     d="m 35.8284,65.1716 c -1.782798,1.782798 -4.190903,2.7965 -6.7089,2.8277 C 26.447503,67.9672 23.891798,66.891798 22,65 20.079102,63.079102 19,60.473897 19,57.7574 v -38.929" />
  <path
     id="path1813"
     style="fill:none;stroke:#7f7f7f;stroke-opacity:1"
     d="m 40,53 h 34 c 0.552299,0 1,0.447701 1,1 v 3.7574 c 0,2.716497 -1.079102,5.321702 -3,7.2426 -1.920898,1.920898 -4.526103,3 -7.2426,3 H 29 c 2.561197,0 5.017402,-1.017402 6.8284,-2.8284" />
  <path
     id="path1811"
     style="fill:none;stroke:#7f7f7f;stroke-opacity:1"
     d="m 40,53 c -0.552299,0 -1,0.447701 -1,1 v 3.7574 C 39,60.473897 37.920898,63.079102 36,65 l -0.1716,0.1716" />
  <path
     id="path1809"
     style="fill:none;stroke:#7f7f7f;stroke-opacity:1"
     d="M 17,14 16.9989,13.9989 C 15.718501,12.719001 13.982098,12 12.1716,12 H 11.8284 C 10.017402,12 8.2805787,12.719401 7,14 5.7194213,15.280599 5,17.017402 5,18.8284 V 29 c 0,0.552299 0.4477206,1 1,1 h 12 c 0.552299,0 1,-0.447701 1,-1 V 18.8284" />
  <path
     id="path1807"
     style="fill:none;stroke:#7f7f7f;stroke-opacity:1"
     d="m 17,14 c 1.280599,1.280599 2,3.017402 2,4.8284" />
  <path
     id="path1805"
     style="fill:none;stroke:#7f7f7f;stroke-opacity:1"
     d="M 62.999999,45.226668 63,53 H 40" />
  <path
     id="path1801"
     style="fill:none;stroke:#7f7f7f;stroke-opacity:1"
     d="M 17,14 16.4142,13.4142 C 15.508701,12.508701 14.280599,12 13,12 h 39.7574 c 2.716497,0 5.321702,1.079102 7.2426,3 1.920898,1.920898 3,4.526103 3,7.2426 l -2e-6,8.066297" />
  <path
     d="m 54.656434,18.745885 c 0.3839,-0.67185 1.3526,-0.67185 1.73645,0 l 14.27685,24.9844 c 0.38095,0.6667 -0.10045,1.49615 -0.86825,1.49615 h -28.55365 c -0.767815,0 -1.24918,-0.82945 -0.868235,-1.49615 z"
     fill="#C2CCDE"
     fill-opacity="0.25"
     id="path692"
     style="fill:#c8c8c8;fill-opacity:0.25;stroke-width:0.5" />
  <path
     d="m 55.508534,25.463735 v 11.2 m 0,3.59995 v 0.8 m -14.2607,4.16275 h 28.55365 c 0.7678,0 1.2492,-0.82945 0.86825,-1.49615 l -14.27685,-24.9844 c -0.38385,-0.67185 -1.35255,-0.67185 -1.73645,0 l -14.276835,24.9844 c -0.380945,0.6667 0.10042,1.49615 0.868235,1.49615 z"
     stroke="#C2CCDE"
     stroke-linecap="round"
     stroke-linejoin="round"
     id="path694"
     style="stroke:#7f7f7f;stroke-width:1;stroke-dasharray:none;stroke-opacity:1" />
</svg>
