<?xml version="1.0" encoding="UTF-8" standalone="no"?>
<svg
   width="80"
   height="80"
   viewBox="0 0 80 80"
   fill="none"
   version="1.1"
   id="svg1979"
   xmlns="http://www.w3.org/2000/svg"
   xmlns:svg="http://www.w3.org/2000/svg">
  <defs
     id="defs1983" />
  <path
     d="M 14,30.0592 C 14,29.5287 14.2107,29.02 14.5858,28.645 L 28.645,14.5858 C 29.02,14.2107 29.5287,14 30.0592,14 h 19.8816 c 0.5305,0 1.0392,0.2107 1.4142,0.5858 L 65.4142,28.645 C 65.7893,29.02 66,29.5287 66,30.0592 v 19.8822 c 0,0.5305 -0.2107,1.0392 -0.5858,1.4142 L 51.3556,65.4142 C 50.9806,65.7893 50.4719,66 49.9414,66 H 30.0586 c -0.5305,0 -1.0392,-0.2107 -1.4142,-0.5858 L 14.5858,51.3556 C 14.2107,50.9806 14,50.4719 14,49.9414 Z"
     fill="#C2CCDE"
     fill-opacity="0.25"
     id="path1971"
     style="fill:#c8c8c8;fill-opacity:0.25" />
  <path
     d="m 41.1425,27.6721 c 0,-1.2978 -1.0522,-2.35 -2.35,-2.35 -1.2979,0 -2.35,1.0522 -2.35,2.35 v 12.0384 c 0,0.0151 -0.0123,0.0273 -0.0274,0.0273 -0.0151,0 -0.0273,-0.0122 -0.0273,-0.0273 v -9.94 c 0,-1.2979 -1.0522,-2.35 -2.35,-2.35 -1.2979,0 -2.35,1.0521 -2.35,2.35 v 12.918 c 0,0.1051 -0.1362,0.1466 -0.1948,0.0593 l -1.8438,-2.7462 c -0.7235,-1.0776 -2.1835,-1.3646 -3.261,-0.6412 -1.0775,0.7235 -1.3646,2.1834 -0.6412,3.261 l 7.3963,11.0164 c 0.4364,0.6501 1.168,1.0401 1.951,1.0401 H 46.717 c 1.1436,0 2.1212,-0.8233 2.3157,-1.9502 l 1.5849,-9.1804 c 0.0228,-0.132 0.0343,-0.2658 0.0343,-0.3998 v -9.1803 c 0,-1.2979 -1.0521,-2.35 -2.35,-2.35 -1.2979,0 -2.35,1.0521 -2.35,2.35 v 5.7433 c 0,0.0151 -0.0122,0.0273 -0.0274,0.0273 -0.0151,0 -0.0273,-0.0122 -0.0273,-0.0273 v -9.94 c 0,-1.2979 -1.0521,-2.35 -2.35,-2.35 -1.2979,0 -2.35,1.0521 -2.35,2.35 v 9.94 c 0,0.0151 -0.0123,0.0273 -0.0274,0.0273 -0.0151,0 -0.0273,-0.0122 -0.0273,-0.0273 z"
     fill="#C2CCDE"
     fill-opacity="0.25"
     id="path1973"
     style="fill:#c8c8c8;fill-opacity:0.25" />
  <path
     d="M 14,30.0592 C 14,29.5287 14.2107,29.02 14.5858,28.645 L 28.645,14.5858 C 29.02,14.2107 29.5287,14 30.0592,14 h 19.8816 c 0.5305,0 1.0392,0.2107 1.4142,0.5858 L 65.4142,28.645 C 65.7893,29.02 66,29.5287 66,30.0592 v 19.8822 c 0,0.5305 -0.2107,1.0392 -0.5858,1.4142 L 51.3556,65.4142 C 50.9806,65.7893 50.4719,66 49.9414,66 H 30.0586 c -0.5305,0 -1.0392,-0.2107 -1.4142,-0.5858 L 14.5858,51.3556 C 14.2107,50.9806 14,50.4719 14,49.9414 Z"
     stroke="#C2CCDE"
     stroke-linecap="round"
     stroke-linejoin="round"
     id="path1975"
     style="stroke:#7f7f7f;stroke-opacity:1" />
  <path
     d="m 41.1425,27.6721 c 0,-1.2978 -1.0522,-2.35 -2.35,-2.35 -1.2979,0 -2.35,1.0522 -2.35,2.35 v 12.0384 c 0,0.0151 -0.0123,0.0273 -0.0274,0.0273 -0.0151,0 -0.0273,-0.0122 -0.0273,-0.0273 v -9.94 c 0,-1.2979 -1.0522,-2.35 -2.35,-2.35 -1.2979,0 -2.35,1.0521 -2.35,2.35 v 12.918 c 0,0.1051 -0.1362,0.1466 -0.1948,0.0593 l -1.8438,-2.7462 c -0.7235,-1.0776 -2.1835,-1.3646 -3.261,-0.6412 -1.0775,0.7235 -1.3646,2.1834 -0.6412,3.261 l 7.3963,11.0164 c 0.4364,0.6501 1.168,1.0401 1.951,1.0401 H 46.717 c 1.1436,0 2.1212,-0.8233 2.3157,-1.9502 l 1.5849,-9.1804 c 0.0228,-0.132 0.0343,-0.2658 0.0343,-0.3998 v -9.1803 c 0,-1.2979 -1.0521,-2.35 -2.35,-2.35 -1.2979,0 -2.35,1.0521 -2.35,2.35 v 5.7433 c 0,0.0151 -0.0122,0.0273 -0.0274,0.0273 -0.0151,0 -0.0273,-0.0122 -0.0273,-0.0273 v -9.94 c 0,-1.2979 -1.0521,-2.35 -2.35,-2.35 -1.2979,0 -2.35,1.0521 -2.35,2.35 v 9.94 c 0,0.0151 -0.0123,0.0273 -0.0274,0.0273 -0.0151,0 -0.0273,-0.0122 -0.0273,-0.0273 z"
     stroke="#C2CCDE"
     stroke-linecap="round"
     stroke-linejoin="round"
     id="path1977"
     style="stroke:#7f7f7f;stroke-opacity:1" />
</svg>
