<?xml version="1.0" encoding="UTF-8" standalone="no"?>
<svg
   width="80"
   height="80"
   viewBox="0 0 80 80"
   fill="none"
   version="1.1"
   id="svg1321"
   xmlns="http://www.w3.org/2000/svg"
   xmlns:svg="http://www.w3.org/2000/svg">
  <defs
     id="defs1325" />
  <path
     d="m 16,16.2559 c -2.2091,0 -4,1.7908 -4,4 v 36 h 20.126 c 0.4441,1.7252 2.0102,3 3.874,3 h 8 c 1.8638,0 3.4299,-1.2748 3.874,-3 H 68 v -36 c 0,-2.2092 -1.7909,-4 -4,-4 z"
     fill="#C2CCDE"
     fill-opacity="0.25"
     id="path1315"
     style="fill:#c8c8c8;fill-opacity:0.25;stroke:#7f7f7f;stroke-opacity:1" />
  <path
     d="M 32.126,56.2559 H 4.15215 C 4.06812,56.2559 4,56.324 4,56.408 c 0,4.3343 3.51361,7.8479 7.8479,7.8479 H 68.1521 C 72.4864,64.2559 76,60.7423 76,56.408 76,56.324 75.9319,56.2559 75.8479,56.2559 H 47.874 c -0.4441,1.7252 -2.0102,3 -3.874,3 h -8 c -1.8638,0 -3.4299,-1.2748 -3.874,-3 z"
     fill="#C2CCDE"
     fill-opacity="0.25"
     id="path1317"
     style="fill:#c8c8c8;fill-opacity:0.25;stroke:#7f7f7f;stroke-opacity:1" />
  <path
     d="M 32.126,56.2559 H 12 v -36 c 0,-2.2092 1.7909,-4 4,-4 h 48 c 2.2091,0 4,1.7908 4,4 v 36 H 47.874 m -15.748,0 c 0.4441,1.7252 2.0102,3 3.874,3 h 8 c 1.8638,0 3.4299,-1.2748 3.874,-3 m -15.748,0 H 4.15215 C 4.06812,56.2559 4,56.324 4,56.408 c 0,4.3343 3.51361,7.8479 7.8479,7.8479 H 68.1521 C 72.4864,64.2559 76,60.7423 76,56.408 76,56.324 75.9319,56.2559 75.8479,56.2559 H 47.874 m -12.7311,-7.918 9.7142,-24 m -13.1142,4 -7.9366,7.2622 c -0.4333,0.3965 -0.4333,1.0791 0,1.4755 l 7.9366,7.2623 m 16.5142,-16 7.9366,7.2622 c 0.4333,0.3965 0.4333,1.0791 0,1.4755 l -7.9366,7.2623"
     stroke="#C2CCDE"
     stroke-linecap="round"
     stroke-linejoin="round"
     id="path1319"
     style="stroke:#7f7f7f;stroke-opacity:1" />
</svg>
