<?xml version="1.0" encoding="UTF-8" standalone="no"?>
<svg
   width="80"
   height="80"
   viewBox="0 0 80 80"
   fill="none"
   version="1.1"
   id="svg2135"
   xmlns="http://www.w3.org/2000/svg"
   xmlns:svg="http://www.w3.org/2000/svg">
  <defs
     id="defs2139" />
  <path
     d="M 30,55.0008 V 39.5705 c 0,-1.0544 0.4163,-2.0661 1.1583,-2.8151 L 41.6276,26.1872 c 0.7511,-0.7581 1.774,-1.1847 2.8413,-1.1848 L 50,25.0017 v -8.0006 c 0,-2.2094 -1.7913,-4.0004 -4.0007,-4 l -23.9989,-2e-4 C 19.7911,13.0006 18,14.7915 18,17.0009 v 33.9999 c 0,2.2091 1.7909,4 4,4 z"
     fill="#C2CCDE"
     fill-opacity="0.25"
     id="path2127"
     style="fill:#c8c8c8;fill-opacity:0.25" />
  <path
     d="m 41.73,26.0879 c 0.7403,-0.6958 1.7194,-1.0854 2.7389,-1.0855 l 13.5306,-0.0012 c 2.2094,-3e-4 4.0005,1.7907 4.0005,4 v 33.9999 c 0,2.2091 -1.7909,4 -4,4 H 34 c -2.2091,0 -4,-1.7909 -4,-4 V 39.5705 c 0,-1.0167 0.3871,-1.9934 1.0801,-2.7335 -0.3475,0.4254 -0.0497,1.0858 0.5199,1.0858 h 7.2 c 2.2091,0 4,-1.7909 4,-4 V 26.615 c 0,-0.5631 -0.6469,-0.8582 -1.07,-0.5271 z"
     fill="#C2CCDE"
     fill-opacity="0.25"
     id="path2129"
     style="fill:#c8c8c8;fill-opacity:0.25" />
  <path
     d="M 31.1259,36.7855 41.6633,26.1468 C 42.081,25.725 42.8,26.0214 42.8,26.615 v 7.3078 c 0,2.2091 -1.7909,4 -4,4 h -7.2 c -0.5929,0 -0.8913,-0.7161 -0.4741,-1.1373 z"
     fill="#C2CCDE"
     fill-opacity="0.25"
     id="path2131"
     style="fill:#c8c8c8;fill-opacity:0.25" />
  <path
     d="m 30,39.5705 v 15.4303 h -8 c -2.2091,0 -4,-1.7909 -4,-4 V 17.0009 c 0,-2.2094 1.7911,-4.0003 4.0004,-4 l 23.9989,2e-4 c 2.2094,-4e-4 4.0007,1.7906 4.0007,4 v 8.0006 l -5.5311,7e-4 M 30,39.5705 c 0,-1.0544 0.4163,-2.0661 1.1583,-2.8151 L 41.6276,26.1872 c 0.7511,-0.7581 1.774,-1.1847 2.8413,-1.1848 M 30,39.5705 v 23.4306 c 0,2.2091 1.7909,4 4,4 h 24 c 2.2091,0 4,-1.7909 4,-4 V 29.0012 c 0,-2.2093 -1.7911,-4.0003 -4.0005,-4 L 44.4689,25.0024 M 30,39.5705 c 0,-1.0167 0.3871,-1.9934 1.0801,-2.7335 -0.3475,0.4254 -0.0497,1.0858 0.5199,1.0858 M 44.4689,25.0024 c -1.0195,10e-5 -1.9986,0.3897 -2.7389,1.0855 0.4231,-0.3311 1.07,-0.036 1.07,0.5271 M 31.6,37.9228 h 7.2 c 2.2091,0 4,-1.7909 4,-4 V 26.615 M 31.6,37.9228 c -0.5929,0 -0.8913,-0.7161 -0.4741,-1.1373 L 41.6633,26.1468 C 42.081,25.725 42.8,26.0214 42.8,26.615"
     stroke="#C2CCDE"
     stroke-linecap="round"
     stroke-linejoin="round"
     id="path2133"
     style="stroke:#7f7f7f;stroke-opacity:1" />
</svg>
