<?xml version="1.0" encoding="UTF-8" standalone="no"?>
<svg
   width="80"
   height="80"
   viewBox="0 0 80 80"
   fill="none"
   version="1.1"
   id="svg4365"
   xmlns="http://www.w3.org/2000/svg"
   xmlns:svg="http://www.w3.org/2000/svg">
  <defs
     id="defs4369" />
  <path
     d="m 21,17 c 0,-1.1046 0.8954,-2 2,-2 h 4 c 1.1046,0 2,0.8954 2,2 v 12 c 0,1.1046 -0.8954,2 -2,2 h -4 c -1.1046,0 -2,-0.8954 -2,-2 z"
     fill="#C2CCDE"
     fill-opacity="0.25"
     id="path4357"
     style="fill:#c8c8c8;fill-opacity:0.25" />
  <path
     d="m 51,34 c 0,-1.1046 0.8954,-2 2,-2 h 4 c 1.1046,0 2,0.8954 2,2 v 12 c 0,1.1046 -0.8954,2 -2,2 h -4 c -1.1046,0 -2,-0.8954 -2,-2 z"
     fill="#C2CCDE"
     fill-opacity="0.25"
     id="path4359"
     style="fill:#c8c8c8;fill-opacity:0.25" />
  <path
     d="m 33,51 c 0,-1.1046 0.8954,-2 2,-2 h 4 c 1.1046,0 2,0.8954 2,2 v 12 c 0,1.1046 -0.8954,2 -2,2 h -4 c -1.1046,0 -2,-0.8954 -2,-2 z"
     fill="#C2CCDE"
     fill-opacity="0.25"
     id="path4361"
     style="fill:#c8c8c8;fill-opacity:0.25" />
  <path
     d="m 12,23 h 9 m 8,0 H 68 M 12,40 h 39 m 8,0 h 9 M 12,57 h 21 m 8,0 H 68 M 23,31 h 4 c 1.1046,0 2,-0.8954 2,-2 V 17 c 0,-1.1046 -0.8954,-2 -2,-2 h -4 c -1.1046,0 -2,0.8954 -2,2 v 12 c 0,1.1046 0.8954,2 2,2 z m 30,17 h 4 c 1.1046,0 2,-0.8954 2,-2 V 34 c 0,-1.1046 -0.8954,-2 -2,-2 h -4 c -1.1046,0 -2,0.8954 -2,2 v 12 c 0,1.1046 0.8954,2 2,2 z M 35,65 h 4 c 1.1046,0 2,-0.8954 2,-2 V 51 c 0,-1.1046 -0.8954,-2 -2,-2 h -4 c -1.1046,0 -2,0.8954 -2,2 v 12 c 0,1.1046 0.8954,2 2,2 z"
     stroke="#C2CCDE"
     stroke-linecap="round"
     stroke-linejoin="round"
     id="path4363"
     style="stroke:#7f7f7f;stroke-opacity:1" />
</svg>
