<?xml version="1.0" encoding="UTF-8" standalone="no"?>
<svg
   width="80"
   height="80"
   viewBox="0 0 80 80"
   fill="none"
   version="1.1"
   id="svg16"
   xmlns="http://www.w3.org/2000/svg"
   xmlns:svg="http://www.w3.org/2000/svg">
  <defs
     id="defs20" />
  <path
     d="M 49.4584,29.039 11.0517,39.3301 12.1961,28.966 c 0.3618,-3.2768 2.6967,-5.9961 5.8811,-6.8494 l 16.6902,-4.4721 c 3.1844,-0.8533 6.5661,0.3343 8.5179,2.9912 z"
     fill="#C2CCDE"
     fill-opacity="0.25"
     id="path2"
     style="fill:#c8c8c8;fill-opacity:0.25" />
  <path
     d="m 12.665,57.4024 1.4227,5.3098 c 0.2859,1.0669 1.3826,1.7001 2.4495,1.4142 l 5.7956,-1.5529 c 1.0669,-0.2859 1.7001,-1.3826 1.4142,-2.4495 l -1.3902,-5.1881 -8.6933,2.3294 C 13.33,57.3546 12.995,57.3991 12.665,57.4024 Z"
     fill="#C2CCDE"
     fill-opacity="0.25"
     id="path4"
     style="fill:#c8c8c8;fill-opacity:0.25" />
  <path
     d="m 47.4709,48.2066 1.3901,5.1881 c 0.2859,1.0669 1.3826,1.7001 2.4495,1.4142 l 5.7956,-1.5529 c 1.0669,-0.2859 1.7001,-1.3826 1.4142,-2.4495 l -1.4228,-5.3098 c -0.2874,0.1622 -0.5997,0.2912 -0.9333,0.3805 z"
     fill="#C2CCDE"
     fill-opacity="0.25"
     id="path6"
     style="fill:#c8c8c8;fill-opacity:0.25" />
  <path
     d="M 7.21159,48.6412 C 6.06806,44.3735 8.60072,39.9868 12.8684,38.8433 l 34.7734,-9.3175 c 4.2677,-1.1435 8.6544,1.3891 9.7979,5.6569 l 1.5529,5.7955 c 0.5718,2.1339 -0.6945,4.3273 -2.8284,4.899 L 13.6635,57.2653 C 11.5296,57.837 9.33627,56.5707 8.76451,54.4368 Z"
     fill="#C2CCDE"
     fill-opacity="0.25"
     id="path8"
     style="fill:#c8c8c8;fill-opacity:0.25" />
  <path
     d="m 14.3279,48.1539 c -0.4288,-1.6004 0.521,-3.2454 2.1214,-3.6742 1.6004,-0.4289 3.2454,0.5209 3.6742,2.1213 0.4288,1.6004 -0.5209,3.2454 -2.1213,3.6742 -1.6004,0.4288 -3.2454,-0.5209 -3.6743,-2.1213 z"
     fill="#C2CCDE"
     fill-opacity="0.25"
     id="path10"
     style="fill:#c8c8c8;fill-opacity:0.25" />
  <path
     d="m 51.0331,38.3188 c -0.4288,-1.6004 -2.0738,-2.5502 -3.6742,-2.1214 -1.6004,0.4289 -2.5502,2.0739 -2.1213,3.6743 0.4288,1.6004 2.0738,2.5501 3.6742,2.1213 1.6004,-0.4288 2.5501,-2.0738 2.1213,-3.6742 z"
     fill="#C2CCDE"
     fill-opacity="0.25"
     id="path12"
     style="fill:#c8c8c8;fill-opacity:0.25" />
  <path
     d="m 13.6635,57.2653 8.6933,-2.3294 1.3902,5.1881 c 0.2859,1.0669 -0.3473,2.1636 -1.4142,2.4495 l -5.7956,1.5529 c -1.0669,0.2859 -2.1636,-0.3473 -2.4495,-1.4142 L 12.665,57.4024 c 0.33,-0.0033 0.665,-0.0478 0.9985,-0.1371 z m 0,0 42.5007,-11.3881 M 13.6635,57.2653 C 11.5296,57.837 9.33627,56.5707 8.76451,54.4368 L 7.21159,48.6412 C 6.06806,44.3735 8.60072,39.9868 12.8684,38.8433 l 34.7734,-9.3175 c 4.2677,-1.1435 8.6544,1.3891 9.7979,5.6569 l 1.5529,5.7955 c 0.5718,2.1339 -0.6945,4.3273 -2.8284,4.899 m 0,0 c 0.3336,-0.0893 0.6459,-0.2183 0.9333,-0.3805 l 1.4228,5.3098 c 0.2859,1.0669 -0.3473,2.1636 -1.4142,2.4495 l -5.7956,1.5529 c -1.0669,0.2859 -2.1636,-0.3473 -2.4495,-1.4142 l -1.3901,-5.1881 z m -3.5715,-29.1711 6.0559,3.3663 4.9783,-4.819 1.9018,6.6625 6.9277,0.1127 -3.3663,6.0559 4.819,4.9782 -6.6625,1.9019 -0.1127,6.9277 M 49.4584,29.039 11.0517,39.3301 12.1961,28.966 c 0.3618,-3.2768 2.6967,-5.9961 5.8811,-6.8494 l 16.6902,-4.4721 c 3.1844,-0.8533 6.5661,0.3343 8.5179,2.9912 z M 18.0022,50.2752 c -1.6004,0.4288 -3.2454,-0.5209 -3.6743,-2.1213 -0.4288,-1.6004 0.521,-3.2454 2.1214,-3.6742 1.6004,-0.4289 3.2454,0.5209 3.6742,2.1213 0.4288,1.6004 -0.5209,3.2454 -2.1213,3.6742 z M 48.9118,41.993 c 1.6004,-0.4288 2.5501,-2.0738 2.1213,-3.6742 -0.4288,-1.6004 -2.0738,-2.5502 -3.6742,-2.1214 -1.6004,0.4289 -2.5502,2.0739 -2.1213,3.6743 0.4288,1.6004 2.0738,2.5501 3.6742,2.1213 z"
     stroke="#C2CCDE"
     stroke-linecap="round"
     stroke-linejoin="round"
     id="path14"
     style="stroke:#7f7f7f;stroke-opacity:1" />
</svg>
