<?xml version="1.0" encoding="UTF-8" standalone="no"?>
<svg
   width="80"
   height="80"
   viewBox="0 0 80 80"
   fill="none"
   version="1.1"
   id="svg10"
   xmlns="http://www.w3.org/2000/svg"
   xmlns:svg="http://www.w3.org/2000/svg">
  <defs
     id="defs14" />
  <path
     d="M 17,14 16.4142,13.4142 C 15.5087,12.5087 14.2806,12 13,12 h 39.7574 c 2.7165,0 5.3217,1.0791 7.2426,3 1.9209,1.9209 3,4.5261 3,7.2426 V 53 H 40 c -0.5523,0 -1,0.4477 -1,1 v 3.7574 C 39,60.4739 37.9209,63.0791 36,65 l -0.1716,0.1716 c -1.7828,1.7828 -4.1909,2.7965 -6.7089,2.8277 C 26.4475,67.9672 23.8918,66.8918 22,65 20.0791,63.0791 19,60.4739 19,57.7574 V 18.8284 C 19,17.0174 18.2806,15.2806 17,14 Z"
     fill="#C2CCDE"
     fill-opacity="0.25"
     id="path2"
     style="fill:#c8c8c8;fill-opacity:0.25" />
  <path
     d="M 35.8284,65.1716 36,65 c 1.9209,-1.9209 3,-4.5261 3,-7.2426 V 54 c 0,-0.5523 0.4477,-1 1,-1 h 34 c 0.5523,0 1,0.4477 1,1 v 3.7574 c 0,2.7165 -1.0791,5.3217 -3,7.2426 -1.9209,1.9209 -4.5261,3 -7.2426,3 H 29 c 2.5612,0 5.0174,-1.0174 6.8284,-2.8284 z"
     fill="#C2CCDE"
     fill-opacity="0.25"
     id="path4"
     style="fill:#c8c8c8;fill-opacity:0.25" />
  <path
     d="M 12.1716,12 H 11.8284 C 10.0174,12 8.28058,12.7194 7,14 5.71942,15.2806 5,17.0174 5,18.8284 V 29 c 0,0.5523 0.44772,1 1,1 h 12 c 0.5523,0 1,-0.4477 1,-1 V 18.8284 C 19,17.0174 18.2806,15.2806 17,14 c -4e-4,-4e-4 -7e-4,-7e-4 -0.0011,-0.0011 C 15.7185,12.719 13.9821,12 12.1716,12 Z"
     fill="#C2CCDE"
     fill-opacity="0.25"
     id="path6"
     style="fill:#c8c8c8;fill-opacity:0.25" />
  <path
     d="M 17,14 16.4142,13.4142 C 15.5087,12.5087 14.2806,12 13,12 h 39.7574 c 2.7165,0 5.3217,1.0791 7.2426,3 1.9209,1.9209 3,4.5261 3,7.2426 V 53 H 40 M 17,14 c 1.2806,1.2806 2,3.0174 2,4.8284 M 17,14 c -4e-4,-4e-4 -7e-4,-7e-4 -0.0011,-0.0011 C 15.7185,12.719 13.9821,12 12.1716,12 H 11.8284 C 10.0174,12 8.28058,12.7194 7,14 5.71942,15.2806 5,17.0174 5,18.8284 V 29 c 0,0.5523 0.44772,1 1,1 h 12 c 0.5523,0 1,-0.4477 1,-1 V 18.8284 M 40,53 c -0.5523,0 -1,0.4477 -1,1 v 3.7574 C 39,60.4739 37.9209,63.0791 36,65 l -0.1716,0.1716 M 40,53 h 34 c 0.5523,0 1,0.4477 1,1 v 3.7574 c 0,2.7165 -1.0791,5.3217 -3,7.2426 -1.9209,1.9209 -4.5261,3 -7.2426,3 H 29 c 2.5612,0 5.0174,-1.0174 6.8284,-2.8284 m 0,0 c -1.7828,1.7828 -4.1909,2.7965 -6.7089,2.8277 C 26.4475,67.9672 23.8918,66.8918 22,65 20.0791,63.0791 19,60.4739 19,57.7574 v -38.929"
     stroke="#C2CCDE"
     stroke-linecap="round"
     stroke-linejoin="round"
     id="path8"
     style="stroke:#7f7f7f;stroke-opacity:1" />
</svg>
