<?xml version="1.0" encoding="UTF-8" standalone="no"?>
<svg
   width="80"
   height="80"
   viewBox="0 0 80 80"
   fill="none"
   version="1.1"
   id="svg8"
   xmlns="http://www.w3.org/2000/svg"
   xmlns:svg="http://www.w3.org/2000/svg">
  <defs
     id="defs12" />
  <path
     id="path3530"
     style="fill:#ffffff;stroke-linecap:square;stroke-linejoin:round;fill-opacity:0.5"
     d="m 40.123047,14 c -1.789356,-0.01346 -3.582655,0.156213 -5.339844,0.513672 -10.36812,2.109156 -18.376823,10.214041 -20.394531,20.638672 -0.15039,0.776989 -0.366022,2.418786 -0.419922,3.203125 -0.05462,0.795519 0.01618,3.680653 0.109375,4.476562 0.507019,4.330226 1.939362,8.23198 4.318359,11.753907 4.038946,5.979334 10.411013,10.021806 17.546875,11.134765 1.497109,0.23354 2.21088,0.282297 4.080079,0.279297 1.955348,-0.0032 2.86859,-0.07865 4.474609,-0.369141 C 52.111279,64.253771 58.651124,59.663744 62.5,52.994141 67.466525,44.387809 67.061512,33.628634 61.460938,25.384766 59.583099,22.620636 57.165718,20.227888 54.394531,18.388672 53.196602,17.593612 52.727729,17.321371 51.46875,16.691406 47.978887,14.945153 44.05963,14.029612 40.123047,14 Z m -0.742188,5.832031 c 2.263465,-0.06366 4.546856,0.252365 6.748047,0.964844 4.060756,1.31438 7.620919,3.880033 10.097656,7.275391 0.70525,0.966833 1.205904,1.792805 1.783204,2.947265 2.176267,4.351996 2.702792,9.248584 1.501953,13.97461 -0.706047,2.778712 -1.987239,5.301427 -3.685547,7.466797 l -8.367188,-8.4375 -2.111328,-2.128907 -4.261718,4.22461 2.113281,2.128906 8.263672,8.333984 c -2.736453,1.903933 -5.950954,3.150929 -9.414063,3.511719 -1.030089,0.1073 -3.030306,0.12355 -3.953125,0.03125 -4.797435,-0.48015 -9.059679,-2.48546 -12.416015,-5.841797 -3.127447,-3.127447 -5.037724,-6.936366 -5.726563,-11.419922 -0.1714,-1.115999 -0.217724,-3.929078 -0.08398,-5.054687 0.417059,-3.510237 1.675731,-6.778718 3.693359,-9.591797 1.354629,-1.888694 3.161799,-3.636591 5.123047,-4.957031 3.204459,-2.157456 6.922871,-3.321641 10.695312,-3.427735 z m 20.083985,4.107422 0.371094,0.466797 c 2.279407,2.868392 4.02932,6.578952 4.8125,10.205078 1.119668,5.184045 0.618002,10.483008 -1.453126,15.345703 -0.889189,2.087678 -2.257383,4.356207 -3.607421,5.984375 l -0.138672,0.169922 -0.566407,-0.566406 -1.322265,-1.333984 -1.191406,-1.201172 0.359375,-0.488282 c 2.591637,-3.495336 3.990389,-7.528253 4.130859,-11.912109 0.14418,-4.499736 -1.232306,-9.048454 -3.839844,-12.683594 -0.271399,-0.378344 -0.527259,-0.736832 -0.568359,-0.794922 -0.06562,-0.09279 0.111891,-0.292361 1.46875,-1.648437 z m -39.03125,0.01563 c 0.06102,0 3.05664,3.003253 3.05664,3.064453 0,0.02773 -0.198606,0.322736 -0.441406,0.654297 -1.678048,2.291538 -2.910513,5.025085 -3.539062,7.851563 -0.36642,1.647508 -0.430641,2.305944 -0.431641,4.445312 -0.0012,2.115978 0.04394,2.639495 0.365234,4.220703 0.60458,2.975317 1.964621,6.017609 3.730469,8.341797 0.17311,0.22785 0.316406,0.433431 0.316406,0.457031 0,0.0236 -0.682105,0.723632 -1.515625,1.556641 -0.998099,0.997499 -1.542297,1.49935 -1.591797,1.46875 -0.127799,-0.07899 -1.319552,-1.718478 -1.789062,-2.460937 -2.064288,-3.264387 -3.311854,-6.819908 -3.783203,-10.783204 -0.09174,-0.771189 -0.172034,-3.704532 -0.115235,-4.201172 0.0134,-0.117219 0.05374,-0.554103 0.08984,-0.970703 0.3369,-3.891976 1.777002,-8.004085 4,-11.421875 0.45612,-0.70127 1.584538,-2.222656 1.648438,-2.222656 z" />
</svg>
