<?xml version="1.0" encoding="UTF-8" standalone="no"?>
<svg
   width="80"
   height="80"
   viewBox="0 0 80 80"
   fill="none"
   version="1.1"
   id="svg951"
   xmlns="http://www.w3.org/2000/svg"
   xmlns:svg="http://www.w3.org/2000/svg">
  <defs
     id="defs955" />
  <path
     d="m 36.584,14.2891 c -2.4079,0.2653 -4.7873,0.8698 -7.0655,1.8134 -6.3386,2.6256 -11.3745,7.6615 -14.0001,14 -2.6255,6.3386 -2.6255,13.4605 0,19.799 1.4478,3.4952 3.6284,6.5943 6.3562,9.1115"
     stroke="#3d3321"
     stroke-linecap="round"
     stroke-linejoin="round"
     id="path943"
     style="stroke:#ffffff;stroke-opacity:1;stroke-opacity:1;stroke-width:4" />
  <path
     d="m 42.418,65.7113 c 2.4078,-0.2653 4.7873,-0.8698 7.0655,-1.8135 6.3385,-2.6255 11.3745,-7.6615 14,-14 2.6255,-6.3385 2.6255,-13.4605 0,-19.799 -1.4477,-3.4951 -3.6284,-6.5942 -6.3562,-9.1115"
     stroke="#3d3321"
     stroke-linecap="round"
     stroke-linejoin="round"
     id="path945"
     style="stroke:#ffffff;stroke-opacity:1;stroke-opacity:1;stroke-width:4" />
  <path
     d="M 36.584,23.4037 V 6.5961 c 0,-1.69611 2.0507,-2.54553 3.25,-1.34619 l 7.6287,7.62869 c 1.1715,1.1716 1.1715,3.0711 0,4.2426 l -7.6287,7.6287 c -1.1993,1.1993 -3.25,0.3499 -3.25,-1.3462 z"
     stroke="#3d3321"
     stroke-linecap="round"
     stroke-linejoin="round"
     id="path947"
     style="stroke:#ffffff;stroke-opacity:1;stroke-opacity:1;stroke-width:4" />
  <path
     d="m 42.418,56.5961 v 16.8076 c 0,1.6961 -2.0507,2.5455 -3.25,1.3462 l -7.6287,-7.6287 c -1.1715,-1.1715 -1.1715,-3.071 0,-4.2426 l 7.6287,-7.6287 c 1.1993,-1.1993 3.25,-0.3499 3.25,1.3462 z"
     stroke="#3d3321"
     stroke-linecap="round"
     stroke-linejoin="round"
     id="path949"
     style="stroke:#ffffff;stroke-opacity:1;stroke-opacity:1;stroke-width:4" />
</svg>
