<?xml version="1.0" encoding="UTF-8" standalone="no"?>
<svg
   width="80"
   height="80"
   viewBox="0 0 80 80"
   fill="none"
   version="1.1"
   id="svg3326"
   xmlns="http://www.w3.org/2000/svg"
   xmlns:svg="http://www.w3.org/2000/svg">
  <defs
     id="defs3330" />
  <path
     d="M 48.5,29.759 V 14.2443 c 0,-1.5657 1.8929,-2.3497 3,-1.2427 l 7.409,7.4091 c 0.8787,0.8786 0.8787,2.3033 0,3.1819 l -7.409,7.409 c -1.1071,1.1071 -3,0.323 -3,-1.2426 z"
     fill="#C2CCDE"
     fill-opacity="0.25"
     id="path3320"
     style="fill:#c8c8c8;fill-opacity:0.25" />
  <path
     d="M 31.5,50.2443 V 65.759 c 0,1.5656 -1.8929,2.3497 -3,1.2426 l -7.409,-7.409 c -0.8787,-0.8787 -0.8787,-2.3033 0,-3.182 l 7.409,-7.409 c 1.1071,-1.107 3,-0.323 3,1.2427 z"
     fill="#C2CCDE"
     fill-opacity="0.25"
     id="path3322"
     style="fill:#c8c8c8;fill-opacity:0.25" />
  <path
     d="M 48.5,22.0016 H 29.5711 c -4.5276,0 -8.8697,1.7986 -12.0711,5 -3.2014,3.2015 -5,7.5436 -5,12.0711 v 1.8579 c 0,3.4668 1.0545,6.8249 2.986,9.6454 M 31.5,58.0016 h 18.9289 c 4.5276,0 8.8697,-1.7985 12.0711,-5 3.2014,-3.2014 5,-7.5435 5,-12.071 v -1.8579 c 0,-3.4668 -1.0545,-6.8249 -2.986,-9.6454 M 48.5,14.2443 V 29.759 c 0,1.5656 1.8929,2.3497 3,1.2426 l 7.409,-7.409 c 0.8787,-0.8786 0.8787,-2.3033 0,-3.1819 L 51.5,13.0016 c -1.1071,-1.107 -3,-0.323 -3,1.2427 z M 31.5,65.759 V 50.2443 c 0,-1.5657 -1.8929,-2.3497 -3,-1.2427 l -7.409,7.409 c -0.8787,0.8787 -0.8787,2.3033 0,3.182 l 7.409,7.409 c 1.1071,1.1071 3,0.323 3,-1.2426 z"
     stroke="#C2CCDE"
     stroke-linecap="round"
     stroke-linejoin="round"
     id="path3324"
     style="stroke:#7f7f7f;stroke-opacity:1" />
</svg>
