<?xml version="1.0" encoding="UTF-8" standalone="no"?>
<svg
   width="80"
   height="80"
   viewBox="0 0 80 80"
   fill="none"
   version="1.1"
   id="svg2659"
   xmlns="http://www.w3.org/2000/svg"
   xmlns:svg="http://www.w3.org/2000/svg">
  <defs
     id="defs2663" />
  <path
     d="m 68.0146,19.0734 -5.6569,-5.6568 c -0.7823,-0.7824 -2.0508,-0.7823 -2.8331,0 l -28.8249,28.825 c -2.5006,2.5005 -4.1022,5.7589 -4.5548,9.2661 l -0.4334,3.3587 c -0.0635,0.4926 0.356,0.9121 0.8486,0.8486 l 3.3587,-0.4334 c 3.5072,-0.4526 6.7656,-2.0543 9.2661,-4.5548 L 68.0146,21.8972 c 0.7797,-0.7798 0.7797,-2.044 0,-2.8238 z"
     fill="#C2CCDE"
     fill-opacity="0.25"
     id="path2655"
     style="fill:#c8c8c8;fill-opacity:0.25" />
  <path
     d="M 38.4,20.7417 H 14 c -1.1046,0 -2,0.8955 -2,2 v 44 c 0,1.1046 0.8954,2 2,2 h 44 c 1.1046,0 2,-0.8954 2,-2 V 42.342 m -7.8542,-21.5383 8.4806,8.4807 m 7.3882,-10.211 -5.6569,-5.6568 c -0.7823,-0.7824 -2.0507,-0.7823 -2.8331,0 l -28.8249,28.825 c -2.5006,2.5005 -4.1022,5.7589 -4.5548,9.2661 l -0.4334,3.3587 c -0.0635,0.4926 0.356,0.9121 0.8486,0.8486 l 3.3587,-0.4334 c 3.5072,-0.4526 6.7656,-2.0543 9.2661,-4.5548 L 68.0146,21.8972 c 0.7797,-0.7798 0.7797,-2.044 0,-2.8238 z"
     stroke="#C2CCDE"
     stroke-linecap="round"
     stroke-linejoin="round"
     id="path2657"
     style="stroke:#7f7f7f;stroke-opacity:1" />
</svg>
