<?xml version="1.0" encoding="UTF-8" standalone="no"?>
<svg
   width="80"
   height="80"
   viewBox="0 0 80 80"
   fill="none"
   version="1.1"
   id="svg8"
   xmlns="http://www.w3.org/2000/svg"
   xmlns:svg="http://www.w3.org/2000/svg">
  <defs
     id="defs12" />
  <path
     fill-rule="evenodd"
     clip-rule="evenodd"
     d="M 17,14 16.4142,13.4142 C 15.5087,12.5087 14.2806,12 13,12 h 39.7574 c 2.7165,0 5.3217,1.0791 7.2426,3 1.9209,1.9209 3,4.5261 3,7.2426 V 53 H 40 c -0.5523,0 -1,0.4477 -1,1 v 3.7574 C 39,60.4739 37.9209,63.0791 36,65 l -0.1716,0.1716 c -1.7828,1.7828 -4.1909,2.7965 -6.7089,2.8277 C 26.4475,67.9672 23.8918,66.8918 22,65 20.0791,63.0791 19,60.4739 19,57.7574 V 18.8284 C 19,17.0174 18.2806,15.2806 17,14 Z"
     fill="#f2c94c"
     id="path2" />
  <path
     d="M 35.8284,65.1716 36,65 c 1.9209,-1.9209 3,-4.5261 3,-7.2426 V 54 c 0,-0.5523 0.4477,-1 1,-1 h 34 c 0.5523,0 1,0.4477 1,1 v 3.7574 c 0,2.7165 -1.0791,5.3217 -3,7.2426 -1.9209,1.9209 -4.5261,3 -7.2426,3 H 29 c 2.5612,0 5.0174,-1.0174 6.8284,-2.8284 z"
     fill="#f2994a"
     id="path4" />
  <path
     fill-rule="evenodd"
     clip-rule="evenodd"
     d="M 12.1716,12 H 11.8284 C 10.0174,12 8.28058,12.7194 7,14 5.71942,15.2806 5,17.0174 5,18.8284 V 29 c 0,0.5523 0.44772,1 1,1 h 12 c 0.5523,0 1,-0.4477 1,-1 V 18.8284 C 19,17.0174 18.2806,15.2806 17,14 c -4e-4,-4e-4 -7e-4,-7e-4 -0.0011,-0.0011 C 15.7185,12.719 13.9821,12 12.1716,12 Z"
     fill="#f2994a"
     id="path6" />
  <path
     d="m 55.395642,19.471882 c 0.3839,-0.67185 1.3526,-0.67185 1.7365,0 l 14.2768,24.9844 c 0.38095,0.66665 -0.1004,1.49615 -0.86825,1.49615 h -28.5536 c -0.767845,0 -1.24921,-0.8295 -0.868265,-1.49615 z"
     fill="#eb5757"
     stroke="#f2994a"
     stroke-width="2"
     stroke-linecap="round"
     stroke-linejoin="round"
     id="path137" />
  <path
     d="m 56.247792,37.389732 v -11.2"
     stroke="#f2c94c"
     stroke-width="2"
     stroke-linecap="round"
     stroke-linejoin="round"
     id="path139" />
  <path
     d="m 56.247792,40.989782 v 0.8"
     stroke="#f2c94c"
     stroke-width="2"
     stroke-linecap="round"
     stroke-linejoin="round"
     id="path141" />
</svg>
