<?xml version="1.0" encoding="UTF-8" standalone="no"?>
<svg
   width="80"
   height="80"
   viewBox="0 0 80 80"
   fill="none"
   version="1.1"
   id="svg6"
   xmlns="http://www.w3.org/2000/svg"
   xmlns:svg="http://www.w3.org/2000/svg">
  <defs
     id="defs10" />
  <path
     d="M 14,30.0592 C 14,29.5287 14.2107,29.02 14.5858,28.645 L 28.645,14.5858 C 29.02,14.2107 29.5287,14 30.0592,14 h 19.8816 c 0.5305,0 1.0392,0.2107 1.4142,0.5858 L 65.4142,28.645 C 65.7893,29.02 66,29.5287 66,30.0592 v 19.8822 c 0,0.5305 -0.2107,1.0392 -0.5858,1.4142 L 51.3556,65.4142 C 50.9806,65.7893 50.4719,66 49.9414,66 H 30.0586 c -0.5305,0 -1.0392,-0.2107 -1.4142,-0.5858 L 14.5858,51.3556 C 14.2107,50.9806 14,50.4719 14,49.9414 Z"
     stroke="#C2CCDE"
     stroke-linecap="round"
     stroke-linejoin="round"
     id="path2"
     style="stroke:#000000;stroke-opacity:0.5;stroke-opacity:0.5;stroke-width:1" />
  <path
     d="m 38.7872,24.0474 c 1.386,0 2.5097,1.1236 2.5097,2.5096 v 12.9286 c 0,0.0682 0.0552,0.1234 0.1234,0.1234 0.0949,0 0.1718,-0.0769 0.1718,-0.1718 V 28.8949 c 0,-1.386 1.1236,-2.5096 2.5097,-2.5096 1.3861,0 2.5097,1.1236 2.5097,2.5096 v 10.5907 c 0,0.0682 0.0552,0.1234 0.1234,0.1234 0.0949,0 0.1718,-0.0769 0.1718,-0.1718 v -5.8665 c 0,-1.386 1.1236,-2.5096 2.5097,-2.5096 1.3861,0 2.5097,1.1236 2.5097,2.5096 V 43.799 c 0,0.1272 -0.0097,0.2541 -0.0289,0.3798 l -1.4763,9.6438 c -0.1875,1.2252 -1.2414,2.13 -2.4808,2.13 H 34.6536 c -0.8235,0 -1.5946,-0.404 -2.0634,-1.0811 L 24.5203,43.2163 c -0.789,-1.1396 -0.5049,-2.703 0.6347,-3.492 1.1396,-0.789 2.703,-0.5049 3.492,0.6347 l 2.079,3.0026 c 0.0725,0.1048 0.2369,0.0535 0.2369,-0.074 V 28.8949 c 0,-1.386 1.1236,-2.5096 2.5097,-2.5096 1.386,0 2.5096,1.1236 2.5096,2.5096 v 10.5907 c 0,0.0682 0.0553,0.1234 0.1235,0.1234 0.0949,0 0.1718,-0.0769 0.1718,-0.1718 V 26.557 c 0,-1.386 1.1236,-2.5096 2.5097,-2.5096 z"
     stroke="#C2CCDE"
     stroke-linecap="round"
     stroke-linejoin="round"
     id="path4"
     style="stroke:#000000;stroke-opacity:0.5;stroke-opacity:0.5;stroke-width:1" />
</svg>
